<svg xmlns="http://www.w3.org/2000/svg" viewBox="0 0 100 50" preserveAspectRatio="xMidYMid meet" role="img" aria-label="World map">
<path d="M59.4 25.3L60.5 25.9L60.9 26.3L60.8 26.6L60.8 26.8L61 26.9L60.9 27.1L60.9 27.4L61.1 27.8L61 28L60.7 28.1L60.5 28.1L60.2 28.2L59.8 28.2L59.6 28.2L59.5 27.8L59.4 27.6L59.1 27.6L58.9 27.5L58.7 27.4L58.5 27.3L58.4 27L58.2 26.8L58.2 26.6L58.1 26.2L58.3 26.2L58.5 26L58.5 25.8L58.5 25.6L58.4 25.3L58.9 25.3L59.4 25.3ZM47.6 17.3L47.6 17.8L46.7 17.8L46.7 18.5L46.4 18.5L46.4 18.7L46.4 19.1L45.3 19.1L45.9 19L46 18.8L46.1 18.4L46.5 18.1L46.7 17.8L46.8 17.5L47.1 17.5L47.3 17.5L47.6 17.5L47.6 17.3ZM15.9 11.4L15.3 11.1L15.1 11L14.6 10.9L14.4 10.6L14.1 10.3L14.1 10.1L13.7 9.9L13.9 9.6L13.4 9.3L13.1 9L13 8.8L12.7 8.6L12.5 8.5L12.1 8.5L11.8 8.6L11.6 8.5L11.4 8.3L11.1 8.3L10.8 8.2L10.8 6.7L10.8 5.6L11.4 5.7L11.8 5.8L12.1 5.9L12.3 5.7L12.7 5.7L13.1 5.7L13.5 5.6L13.9 5.5L14.1 5.6L14.3 5.6L14.4 5.4L14.6 5.5L15.1 5.7L15.4 5.5L15.5 5.7L15.8 5.7L16.3 5.6L16.7 5.7L17.3 5.8L17.7 5.9L18 5.9L18.4 6L18 6.1L18.5 6.2L19.2 6.2L19.5 6.1L19.8 6.3L20.1 6.1L19.8 6L20 5.9L20.3 5.9L20.5 5.9L20.7 6L21 6.1L21.3 6.1L21.8 6.2L22.2 6.2L22.7 6.2L22.6 6L22.9 6L23.3 6L23.3 6.3L23.5 6.1L23.7 6.1L23.8 5.8L23.5 5.6L23.2 5.5L23.2 5.2L23.6 5L23.9 5.1L24.2 5.2L24.6 5.5L24.3 5.6L24.8 5.7L24.8 6L25.2 5.8L25.6 5.9L25.5 6.1L25.7 6.3L26 6.1L26.2 5.9L26.2 5.6L26.6 5.6L27 5.7L27.4 5.8L27.2 6.1L27.4 6.2L27.4 6.4L26.8 6.6L26.5 6.6L26.2 6.5L26.1 6.7L25.8 6.9L25.4 7.2L25 7.2L24.8 7.3L24.8 7.5L24.5 7.5L24.1 7.8L23.8 8.1L23.7 8.3L23.7 8.6L24.1 8.7L24.2 8.9L24.4 9.1L24.8 9.1L25.3 9.2L25.5 9.3L25.7 9.4L26.1 9.5L26.4 9.6L26.8 9.7L27.1 9.7L27.1 9.9L27.2 10.2L27.4 10.5L27.8 10.8L28 10.7L28.2 10.4L28 10L27.8 9.8L28.3 9.7L28.6 9.5L28.7 9.3L28.7 9.1L28.5 8.9L28.2 8.7L28.5 8.4L28.4 8.1L28.3 7.7L28.5 7.6L29 7.7L29.3 7.7L29.5 7.7L29.7 7.7L30.1 7.9L30.7 8L30.7 8.3L30.8 8.6L31 8.7L31.2 8.8L31.6 8.7L31.9 8.4L32.1 8.2L32.3 8.5L32.6 8.8L32.9 9.2L32.8 9.4L33.2 9.5L33.5 9.7L33.9 9.7L34.1 9.8L34.2 10.1L34.4 10.1L34.5 10.5L34.3 10.6L34.1 10.7L33.7 10.8L33.3 11L32.9 11.1L32.3 11L31.8 11L31.6 11L31.3 11.2L31 11.4L30.6 11.7L30.2 12L30.5 11.9L30.9 11.6L31.5 11.4L31.9 11.3L32.2 11.5L31.9 11.6L32 11.9L32.1 12.2L32.5 12.3L32.9 12.3L33.2 11.9L33.2 12.1L33.4 12.2L33 12.4L32.4 12.6L32.2 12.7L31.8 12.9L31.6 12.9L31.6 12.6L32.1 12.4L31.7 12.4L31.4 12.5L31.2 12.3L31.2 11.9L31 11.8L30.8 11.8L30.6 12L30.5 12.2L30.4 12.4L30.2 12.4L29.6 12.5L29.2 12.5L28.8 12.8L28.4 12.9L28.1 12.9L28.1 13.1L27.7 13.2L27.4 13.3L27.1 13.4L26.9 13.4L27 13.2L27.2 12.9L27.1 12.7L27.1 12.4L26.8 12.3L26.6 12.1L26.4 12L26.2 11.9L26 11.8L25.7 11.7L25.5 11.6L25.2 11.7L24.8 11.6L24.5 11.6L24.3 11.5L24 11.5L23.8 11.5L23.7 11.3L23 11.4L22 11.4L21.1 11.4L20.3 11.4L19.4 11.4L18.6 11.4L17.8 11.4L17.5 11.4L16.7 11.4L15.9 11.4ZM27.8 4.8L27.5 4.6L27.7 4.5L28.3 4.5L28.8 4.7L28.5 4.8L28.2 4.8L27.9 4.8ZM24 4.2L23.8 4.3L23.4 4.3L23.1 4.2L23.3 4.1L23.7 4L23.9 4.1ZM23.1 3.1L23.5 3.2L23 3.4L22.7 3.3L22.6 3.1L23 3.1ZM25.5 4.3L25.1 4.3L24.3 4.2L24.2 3.9L23.9 3.8L23.3 3.8L23 3.7L23.7 3.6L24 3.7L24.6 3.7L24.8 3.8L25 3.9L25.2 4L25.6 4L26 4L26.4 4L27 3.9L27.5 4L27.8 4.1L27.7 4.3L27.2 4.3L26.9 4.3L26.1 4.3L25.5 4.3ZM19.1 3.3L19.5 3.3L18.9 3.5L18.5 3.4L18.7 3.3L19.1 3.3ZM34.6 10.7L34.4 10.9L34.2 11.2L34.4 11.1L34.6 11.1L34.7 11.3L34.9 11.2L35.1 11.3L35.1 11.5L35.3 11.5L35.4 11.8L35.3 12L35.1 12.1L35 11.8L34.6 12L34.4 12L34.6 11.8L34.4 11.8L34.1 11.8L33.5 11.8L33.7 11.6L33.5 11.5L33.8 11.4L34.1 10.9L34.5 10.7ZM26.7 6.9L27 7L27.3 7.1L27.6 7.2L27.5 7.4L27.1 7.3L26.9 7.2L26.6 7.3L26.2 7.5L26.1 7.3L25.8 7.3L26 7.2L26 7L26.1 6.7L26.3 6.8L26.5 6.8L26.7 6.9ZM28.1 4.9L28.4 4.8L29 4.9L29.4 5.1L29.9 5.1L30.2 5.3L30.9 5.4L31.1 5.5L31.4 5.8L30.9 5.9L31.5 6.1L32 6.2L32.4 6.4L32.8 6.4L32.7 6.6L32.2 6.9L31.9 6.8L31.5 6.6L31.1 6.6L31.1 6.8L31.4 6.9L31.7 7L31.9 7.1L32 7.4L31.9 7.6L31.6 7.5L30.9 7.3L31.3 7.5L31.6 7.7L30.9 7.7L30.3 7.5L29.9 7.4L29.6 7.2L29.2 7L28.4 7.2L28.2 7.1L28.4 6.9L28.9 6.9L29.5 6.8L29.5 6.6L29.8 6.3L29.6 6.1L29.2 6L28.6 5.9L28.8 5.8L28.5 5.6L28.3 5.6L28.1 5.5L27.9 5.6L27.4 5.6L26.4 5.6L25.8 5.5L25.4 5.4L25.1 5.3L25.4 5.2L25 5.2L24.9 4.9L25.2 4.7L25.4 4.6L26.2 4.5L26 4.7L26.2 4.9L26.4 4.6L27.1 4.5L27.6 4.8L27.6 5L28.1 4.9ZM23.7 4.4L24.3 4.4L24.9 4.5L24.4 4.7L24.1 4.8L23.8 5L23.5 5L23.3 4.7L23.5 4.5L23.7 4.4ZM15.9 3.9L16.3 3.6L16.9 3.5L17.3 3.5L17.7 3.4L17.7 3.6L17.5 3.7L17.2 3.8L16.7 3.9L16.3 3.9L15.9 3.9ZM13.1 10L13.4 10L13.3 10.3L13.6 10.5L13.3 10.4L13.2 10.2L13 10.2L13 10ZM20.7 3L21.2 3L22 3.1L22.2 3.2L22.3 3.4L21.9 3.3L21.4 3.2L20.8 3.2L21.1 3.1L20.7 3.1ZM15.7 11.5L15.1 11.4L14.8 11.2L14.4 11.1L14.3 10.9L14.6 11L14.8 11L15.1 11L15.3 11.3L15.6 11.4ZM16.2 4.3L16.6 4.4L17.3 4.4L17.6 4.5L17.9 4.6L17.6 4.7L16.9 4.9L16.5 5.1L15.8 5.3L15 5L15.3 4.7L15.6 4.5L15.3 4.4L16.2 4.3ZM20.1 3.9L20.3 3.9L20.6 3.9L20.5 4.2L19.5 4.2L18.8 4.3L18.4 4.3L18.9 4.1L17.7 4.2L17.3 4.1L17.7 3.8L17.9 3.8L18.7 3.8L19.2 4L19.7 4L19.3 3.8L19.6 3.7L19.8 3.7L20.1 3.9ZM20.4 4.7L20.7 4.8L20.9 5.1L21 5.3L21.4 5.4L21.9 5.5L21.9 5.7L21.5 5.7L21.5 5.9L21 5.9L20.6 5.8L20.2 5.8L19.7 5.9L19 5.9L18.5 6L18.4 5.8L18 5.8L17.7 5.8L17.4 5.6L17.6 5.5L18 5.5L18.4 5.5L18.8 5.5L18.2 5.4L17.6 5.4L17.2 5.4L17.7 5.2L17.3 5.2L16.8 5.1L17.1 4.9L17.3 4.8L18 4.6L18.3 4.7L18.1 4.8L18.8 4.7L19.2 4.9L19.5 4.7L19.7 4.8L19.9 5.1L20.1 5L19.9 4.7L20.1 4.7L20.4 4.7ZM22.1 4.8L21.8 4.6L22.1 4.5L22.5 4.5L23 4.5L22.8 4.7L23.2 4.8L23.1 5.1L22.7 5.2L22.4 5.2L22.2 5.1L21.5 4.9L22.1 4.8ZM22.6 3.7L22.9 3.8L22.9 4L22.7 4.2L22.3 4.2L22 4.2L22 4L21.5 4L21.5 3.8L21.8 3.8L22.2 3.7L22.6 3.7ZM23.3 2.6L23.5 2.5L23.8 2.5L24.3 2.4L24.7 2.6L25.2 2.6L25.6 2.7L25.8 2.9L26.2 3L25.8 3L25.3 3.3L24.8 3.3L24.2 3.2L23.9 3.1L24.1 2.9L23.6 3L23.3 2.9L23.1 2.7L23.3 2.6ZM24.6 2.3L25 2.2L25.3 2.2L25.8 2.1L26.3 2L26.6 2.1L26.9 2.1L27.1 2L27.5 1.9L28 1.9L28.8 1.9L29 1.9L29.8 1.9L30.4 1.9L31 1.9L31.7 1.9L32.3 2L32.8 2L32.1 2.2L31.5 2.3L31.2 2.4L31.8 2.4L31.2 2.5L30.7 2.6L30.2 2.8L29.7 2.9L29.5 2.9L28.6 3L29 3L28.8 3.1L29.1 3.2L28.8 3.3L28.4 3.4L28.2 3.5L27.8 3.6L28.4 3.6L27.6 3.8L26.9 3.8L26.1 3.8L25.7 3.8L25.1 3.8L25.1 3.6L25.6 3.6L25.5 3.4L25.7 3.3L26.4 3.5L26 3.3L25.6 3.2L25.8 3.1L26.3 3.1L26 2.9L25.9 2.7L26.6 2.7L26.8 2.8L27.3 2.6L26.6 2.6L25.7 2.6L25.2 2.5L24.9 2.4L24.6 2.3ZM29.1 6.3L28.9 6.3L28.6 6.4L28.5 6.2L28.7 6.1L28.9 6L29.1 6.1L29.1 6.3ZM23.3 5.7L23.3 5.9L22.9 5.8L22.7 5.8L22.3 5.7L22.5 5.6L22.7 5.5L23 5.6L23.2 5.6ZM15.9 11.4L16.7 11.4L17.5 11.4L17.8 11.4L18.6 11.4L19.4 11.4L20.3 11.4L21.1 11.4L22 11.4L23 11.4L23.6 11.4L23.8 11.5L24 11.5L24.3 11.5L24.5 11.6L24.8 11.6L25.1 11.7L25.5 11.6L25.7 11.7L26 11.8L26.2 11.9L26.4 12L26.6 12.1L26.8 12.2L27.1 12.4L27.1 12.7L27.2 12.9L27.1 13.1L26.9 13.3L27.1 13.4L27.4 13.3L27.7 13.2L28.1 13.1L28 12.9L28.4 12.9L28.7 12.9L29.1 12.6L29.6 12.5L30.1 12.5L30.3 12.4L30.5 12.2L30.6 12L30.8 11.8L31 11.8L31.2 11.9L31.2 12.3L31.4 12.5L31.1 12.7L30.8 12.8L30.5 12.9L30.3 13.1L30.4 13.4L30.6 13.4L30.4 13.5L30.2 13.5L30 13.5L29.8 13.5L29.5 13.6L29.9 13.6L29.6 13.7L29.4 13.7L29.4 14L29.2 14.2L29 14L29.1 14.2L29.1 14.4L28.9 14.7L29 14.5L28.8 14.4L28.8 14.1L28.8 14.4L28.6 14.4L28.8 14.5L28.8 14.7L29 15.1L28.8 15.3L28.5 15.4L28.3 15.6L28 15.7L27.7 16L27.5 16.1L27.4 16.3L27.4 16.5L27.4 16.7L27.5 16.9L27.6 17.1L27.8 17.5L27.8 17.7L27.7 18L27.5 18L27.3 17.8L27.2 17.6L27 17.4L27 17.1L27 16.9L26.7 16.7L26.4 16.8L26.2 16.6L26 16.6L25.7 16.6L25.4 16.6L25.2 16.6L25.2 16.8L25 16.9L24.8 16.9L24.5 16.8L24.3 16.8L24.1 16.7L23.9 16.7L23.7 16.8L23.4 17L23.2 17.1L23 17.3L23 17.6L23 17.8L22.7 17.8L22.5 17.7L22.4 17.5L22.2 17.2L22.1 17L22 16.8L21.8 16.7L21.5 16.7L21.4 17L21.1 16.9L20.9 16.6L20.7 16.4L20.5 16.3L19.9 16.2L19.7 16.3L19.2 16.3L18.5 16.1L18.1 16L17.8 15.9L17.5 16L17.4 15.8L17.2 15.7L17.1 15.5L16.9 15.5L16.6 15.4L16.5 15.2L16.2 15L16 14.6L15.8 14.4L15.6 14.2L15.6 14L15.4 13.8L15.5 13.6L15.5 13.3L15.4 13.1L15.5 12.9L15.5 12.6L15.6 12.4L15.5 12L15.4 11.7L15.8 11.7L15.9 11.9L16 11.6L15.9 11.4ZM7.4 8.9L7.6 8.9L7.5 9.1L7.2 9.2L7 9L7.3 8.9ZM10.8 5.6L10.8 6.7L10.8 8.2L11.1 8.3L11.4 8.3L11.6 8.5L11.8 8.6L12.1 8.5L12.4 8.4L12.7 8.6L13 8.8L13.1 9L13.4 9.3L13.9 9.5L13.7 9.8L13.3 9.6L13.3 9.3L12.9 9.1L12.8 8.9L12.5 8.8L12 8.8L11.7 8.8L11.1 8.5L10.9 8.4L10.4 8.3L10 8.3L9.5 8.2L9.1 8.1L8.8 8.1L8.9 8.3L8.7 8.4L8.4 8.4L8.2 8.5L7.9 8.6L7.8 8.4L7.9 8.1L8.2 8L7.8 8.1L7.6 8.3L7.2 8.5L7.4 8.6L7.2 8.8L6.9 9L6.6 9L6.5 9.2L6.1 9.3L5.7 9.6L5.5 9.5L5.2 9.6L4.9 9.7L4.7 9.8L4.2 9.9L4.5 9.7L4.8 9.6L5.1 9.5L5.4 9.4L5.9 9.2L6.2 9L6.2 8.8L6.4 8.6L6.1 8.7L5.8 8.8L5.6 8.6L5.2 8.7L5 8.7L5 8.5L4.9 8.3L4.5 8.4L4.3 8.3L4.1 8.2L4.1 8L3.9 7.9L4.2 7.6L4.5 7.4L4.7 7.5L4.9 7.3L5.1 7.4L5.3 7.3L5.1 7.1L5.3 7L4.9 7.1L4.6 7.1L4.2 7.1L3.8 7L3.3 6.8L3.7 6.6L4.3 6.5L4.5 6.5L5.1 6.6L4.9 6.5L4.5 6.4L4.3 6.2L4.1 6.1L3.7 6L4.3 5.9L4.7 5.7L5 5.5L5.3 5.4L5.8 5.3L6.1 5.3L6.5 5.2L6.9 5.2L7.1 5.4L7.7 5.3L8.1 5.4L8.4 5.4L9 5.5L9.5 5.5L9.7 5.6L10.1 5.5L10.5 5.6L10.8 5.6ZM74.3 11.3L74.1 11.5L73.8 11.5L73.8 11.8L73.1 11.9L72.9 12.4L72.2 12.5L72.5 13L72.3 13.1L72.1 13.2L71.6 13.1L71.1 13.1L70.6 13L70.4 13.2L70 13.1L69.8 13.1L69.7 13.3L69.2 13.5L69.1 13.7L68.9 13.6L68.5 13.6L68.5 13.3L68.3 13.3L68.4 13.1L68 12.9L67.6 12.9L67.2 12.9L67 12.7L66.7 12.6L66.3 12.4L65.5 12.5L65.5 13.5L65.2 13.3L65 13.2L64.7 13.3L64.6 13.1L64.3 13L64.1 12.8L64 12.6L64.2 12.6L64.3 12.4L64.5 12.4L64.7 12.4L64.8 12.2L64.7 12L64.5 12L64.2 11.9L63.9 12.1L63.6 12.1L63.5 11.9L63.3 11.7L63.1 11.7L62.9 11.6L63.1 11.3L63.2 11L63.5 11.1L63.5 10.9L64.1 10.6L64.5 10.6L65.1 10.8L65.5 10.9L65.8 10.8L66.2 10.8L66.6 11L67 10.9L66.7 10.6L66.9 10.4L67.1 10.3L66.9 10.1L67.1 10L68.1 9.9L68.9 9.7L69.2 9.6L69.7 9.7L69.8 10L70.1 9.9L70.4 10L70.7 10.1L71.4 9.9L71.6 10.2L72.2 10.9L72.4 10.7L72.8 10.9L73.2 10.8L73.4 11L73.6 11.1L73.8 11.2L74.1 11.2L74.3 11.3ZM65.5 13.5L65.5 12.5L66.3 12.3L66.7 12.6L67 12.7L67.2 12.9L67.6 12.9L68 12.9L68.4 13.1L68.3 13.3L68.5 13.3L68.5 13.6L68.9 13.6L69.1 13.7L69.2 13.5L69.6 13.3L69.8 13.3L69.6 13.5L69.8 13.6L70 13.5L70.3 13.6L69.9 13.8L69.7 13.8L69.6 13.6L69.3 13.7L69.2 13.9L69 14L68.8 14L68.9 14.2L69 14.4L68.8 14.7L68.6 14.6L68.1 14.3L67.8 14.2L67.6 14.1L67.3 13.9L67.2 13.6L66.8 13.5L66.7 13.3L66.3 13.1L66.1 13.3L65.8 13.4L65.5 13.5ZM89.2 25.7L89.6 25.9L90.2 26.1L90.4 26.2L90.5 26.4L91 26.7L90.8 26.9L90.9 27.1L91.1 27.2L91.3 27.5L91.5 27.5L91.7 27.7L91.9 27.9L91.7 28L91.4 27.9L91.1 27.8L90.9 27.6L90.7 27.5L90.6 27.2L90.2 27.1L90 27.2L89.8 27.3L89.8 27.5L89.6 27.6L89.2 27.5L89.2 26.6L89.2 25.7ZM92 26.6L91.7 26.8L91.4 26.7L91.2 26.6L91.5 26.6L91.7 26.4L91.9 26.5L92.1 26.3L92.3 26.2L92.3 26.4L92.1 26.5ZM89.2 25.7L89.2 26.6L89.2 27.5L88.9 27.3L88.6 27.2L88.2 27.3L88.3 27.1L88.5 27L88.4 26.7L88.3 26.5L87.8 26.3L87.5 26.2L87.1 26L86.9 26.1L86.9 25.9L86.7 25.8L87 25.7L87.2 25.7L86.7 25.6L86.6 25.4L86.4 25.4L86.6 25.2L86.8 25.1L87.2 25.2L87.3 25.8L87.6 25.9L87.9 25.6L88.2 25.5L88.4 25.5L88.7 25.6L88.9 25.7L89.2 25.7ZM82.7 23.9L82.6 24.1L82.8 24.4L83.1 24.7L82.7 24.8L82.6 25L82.6 25.2L82.4 25.4L82.4 25.7L82.3 26.1L81.9 26.1L81.6 26L81.1 26L81 25.8L80.8 25.8L80.6 25.8L80.6 25.4L80.4 25.4L80.3 25.1L80.3 24.9L80.3 24.6L80.5 24.4L80.5 24.6L80.7 24.8L80.9 24.7L81.1 24.7L81.3 24.6L81.6 24.7L81.8 24.6L82 24.2L82.2 23.8L82.5 23.8L82.7 23.9ZM85.5 24.4L85.7 24.6L85.7 24.9L85.5 25.1L85.7 25.2L85.5 25.1L85.4 24.7L85.4 24.5ZM84.1 24.8L84.5 24.7L84.7 24.5L84.6 24.9L84.4 24.9L84.1 24.9L83.6 24.9L83.4 24.9L83.3 25.1L83.6 25.4L84.3 25.2L84.1 25.3L83.8 25.5L84 25.9L84.2 26.3L84.2 26.5L84 26.5L84.1 26.2L83.8 26.3L83.6 26L83.6 25.7L83.4 25.8L83.4 26.1L83.5 26.5L83.3 26.6L83.2 26.2L83.2 26L83 25.8L83.1 25.6L83.1 25.4L83.3 25L83.3 24.8L83.6 24.6L83.8 24.7L84.1 24.8ZM80.1 26.8L80.7 26.9L81.3 26.9L81.4 27.1L81.8 27.2L82.1 27.3L81.8 27.4L81.5 27.3L81.3 27.3L81 27.3L80.7 27.3L80.4 27.2L80.2 27.1L79.6 27L79.3 26.9L79.5 26.6L79.8 26.7L80 26.8ZM79 25.3L79 25.5L79.1 25.7L79.3 25.7L79.5 25.9L79.4 26.2L79.4 26.6L79.1 26.6L78.9 26.4L78.5 26.2L78.4 26L78.2 25.8L78 25.6L77.8 25.2L77.6 24.9L77.5 24.7L77.4 24.5L77.1 24.3L77 24.1L76.8 23.9L76.5 23.6L77.1 23.5L77.3 23.8L77.5 24L77.7 24.1L78 24.4L78.2 24.4L78.5 24.6L78.6 24.8L78.8 25L78.7 25.2L78.9 25.3ZM30.9 39.6L31 39.8L31.2 40L31.5 40.1L31.9 40.2L31.5 40.3L31.2 40.2L30.9 40.2L30.9 39.6ZM34 33.4L33.9 33.6L33.8 33.9L33.9 34.2L33.8 34.4L33.8 34.6L34.1 34.8L34.1 35L34.2 35.3L34 35.6L33.5 35.8L33 35.8L32.7 35.8L32.7 36L32.7 36.2L32.6 36.4L32.3 36.4L32 36.3L32 36.7L32.3 36.7L32.1 36.9L31.9 37.1L31.9 37.4L31.5 37.5L31.3 37.7L31.2 37.9L31.5 38.1L31.8 38.1L31.7 38.4L31.3 38.5L31.2 38.9L30.9 39L30.9 39.4L31.1 39.5L30.7 39.5L30 39.4L29.9 39.1L29.7 39.1L29.6 38.7L29.8 38.6L29.9 38.4L30 38L30.1 37.7L30.1 37.5L30.2 37.3L30 37.1L30 36.7L30 36.3L30.1 36.1L30.2 35.8L30.2 35.4L30.2 35.2L30.5 35L30.4 34.8L30.6 34.5L30.6 34.2L30.4 33.7L30.6 33.4L30.6 33.2L30.7 32.9L30.8 32.6L31 32.5L31 32.3L31 31.8L31.3 31.7L31.4 31.4L31.6 31.1L32 31.1L32.1 31.3L32.2 31.1L32.5 31.1L33.1 31.6L33.3 31.7L33.7 31.9L34 32L33.7 32.5L34 32.6L34.3 32.7L34.5 32.6L34.8 32.4L34.8 32.1L35 32.1L35.1 32.3L35.1 32.5L34.9 32.6L34.7 32.7L34.4 33L34 33.4ZM30.9 39.6L30.9 40.2L31.2 40.2L31.4 40.2L31.3 40.4L31.1 40.4L30.9 40.4L30.6 40.3L30.3 40.3L29.9 40.1L29.6 40L29.3 39.7L29.5 39.7L29.9 39.9L30.2 40L30.4 39.9L30.5 39.7L30.7 39.6L30.9 39.6ZM30.7 29.9L30.8 30.1L30.8 30.3L31 30.4L30.9 30.7L31.1 31L31.2 31.4L31.4 31.3L31.3 31.7L31 31.8L31 32.3L31 32.5L30.8 32.6L30.7 32.9L30.6 33.2L30.6 33.4L30.4 33.7L30.5 34.2L30.6 34.5L30.4 34.8L30.5 35L30.2 35.2L30.2 35.4L30.3 35.7L30.1 36.1L30 36.3L30.1 36.7L30 37.1L30.1 37.3L30.1 37.5L30.1 37.7L30 38L29.9 38.3L29.8 38.6L29.6 38.7L29.6 39L29.9 39.1L29.9 39.3L30.7 39.5L31 39.5L30.7 39.5L30.3 39.7L30.3 40L29.8 39.9L29.5 39.7L29.2 39.5L29.1 39.3L29 39L29 38.5L29.1 38.3L29.4 38L29 38L29.3 37.7L29.3 37.3L29.7 37.3L29.8 36.8L29.6 36.7L29.5 37L29.4 36.6L29.5 36.1L29.7 35.9L29.6 35.6L29.6 35.3L29.8 34.9L30 34.4L30.2 34L30.1 33.6L30.2 33.4L30.1 33L30.3 32.7L30.4 32.1L30.4 31.6L30.5 30.9L30.5 30.5L30.5 30.1L30.7 29.9ZM58.1 26.2L58.2 26.5L58.2 26.8L58.4 27L58.5 27.3L58.1 27.3L57.9 27.5L58 27.7L57.9 28L57.9 28.3L58.2 28.4L58.2 28.7L58 28.7L57.9 28.5L57.6 28.4L57.5 28.2L57.2 28.3L57.1 28.1L56.9 28.1L56.7 28L56.5 28L56.3 28.1L56.2 27.7L56.1 27.5L56.1 27.3L56 27L55.7 27L55.4 27L55.3 27.2L55.1 27.2L54.9 27.2L54.7 27.1L54.6 26.8L54.5 26.6L53.7 26.6L53.5 26.7L53.5 26.5L53.6 26.3L53.8 26.3L54.1 26.4L54.2 26.2L54.4 26.1L54.4 25.8L54.6 25.5L54.7 25.3L54.9 25.2L54.9 25L54.9 24.8L55 24.5L55 24.3L55.1 24L55.2 23.8L55.4 23.6L55.6 23.7L55.8 23.8L56 23.8L56.2 23.9L56.3 23.7L56.5 23.7L56.8 23.6L57 23.6L57.3 23.6L57.5 23.6L57.8 23.8L58 23.8L58.3 23.7L58.6 24L58.5 24.4L58.7 24.4L58.5 24.6L58.3 24.8L58.3 25.1L58.2 25.4L58.1 25.6L58.1 25.8L58.1 26.2ZM61.6 25.5L61.4 25.2L61.4 24.2L61.6 23.9L61.9 23.8L62.1 23.6L62.5 23.6L63.3 22.8L63.5 22.5L63.6 22.2L63.6 21.9L63.8 21.8L64 21.8L64.2 21.7L64.2 21.9L64.1 22.1L64 22.4L63.9 22.8L63.7 23.1L63.5 23.5L63.3 23.8L62.9 24.2L62.7 24.4L62.2 24.7L62 24.9L61.7 25.3L61.6 25.5ZM60.9 26.3L60.5 26L59.5 25.3L59.4 25L59.6 24.7L59.7 24.5L59.6 24.2L59.6 24L59.4 23.8L59.6 23.7L59.8 23.5L59.9 23.7L60.2 23.8L60.6 24L60.8 24L61 24L61.3 23.8L61.6 23.9L61.4 24.2L61.4 25.2L61.6 25.5L61.4 25.6L61.2 25.7L61.1 25.9L61 26.2ZM56.8 22.7L56.6 22.6L56.5 22.4L56.5 22.2L56.4 22L56.4 21.8L56.2 21.6L56.1 21.4L56.2 21.2L56.2 21L56.3 20.8L56.4 20.6L56.6 20.7L56.6 19.6L56.6 19.4L56.9 19.4L56.9 18.9L58.1 18.9L59.1 18.9L60.2 18.9L60.3 19.2L60.3 19.5L60.4 19.8L60.7 20L60.5 20.2L60.3 20.2L60.2 20.5L60.1 20.9L60.1 21.2L60 21.5L59.8 21.6L59.7 21.9L59.5 22L59.4 22.3L59.4 22.6L59.4 22.4L59.4 22.2L59.2 22L59.2 21.8L59.2 21.6L58.9 21.7L59 21.9L58.8 22.1L58.7 22.3L58.3 22.1L58.2 22.3L58 22.4L57.8 22.4L57.5 22.3L57.2 22.2L57 22.1L56.9 22.3L56.8 22.5L56.6 22.6L56.8 22.7ZM56.6 19.6L56.6 20.7L56.4 20.6L56.3 20.8L56.2 21L56.2 21.2L56.1 21.4L56.2 21.6L56.3 21.8L56.2 22L56 22.1L55.8 22.4L55.6 22.5L55.3 22.5L55.1 22.7L54.6 22.9L54.2 22.9L54.2 22.7L54 22.5L53.9 22.3L54.1 22.2L54.3 22.2L54.1 22L54.2 21.8L54.1 21.6L54 21.4L53.9 21.1L53.9 20.6L54.2 20.4L54.3 20L54.4 19.5L54.4 19.3L54.2 19.1L54.1 18.6L54.4 18.5L55.5 19L56.6 19.6ZM30.1 19.5L30.1 19.7L30.1 19.9L29.9 19.9L29.6 19.9L29.3 19.9L29.6 19.9L29.8 19.9L29.8 19.7L29.6 19.5L29.8 19.5L30.1 19.5ZM30.1 20L30 19.8L30.1 19.5L30.3 19.5L30.5 19.5L30.8 19.6L31 19.8L30.8 19.9L30.6 19.9L30.4 19.9L30.2 20.1ZM63.6 12.1L63.5 12.3L63.2 12.3L63 12.6L63.2 12.9L63.2 13.1L63.5 13.4L63.3 13.5L63 13.4L62.7 13.3L62.4 13.1L62.2 13.2L61.8 13L61.4 12.9L61.1 12.9L60.7 12.7L60.4 12.6L60.2 12.4L60.4 12.4L60.6 12.2L60.5 12L60.9 11.9L60.6 11.9L60.8 11.7L61 11.7L61 11.4L61.1 11.2L60.7 11.1L60.4 11L60.2 11L59.8 11L59.7 10.8L59.5 10.8L59.6 10.6L59.4 10.5L59.1 10.5L58.9 10.5L58.8 10.3L59 10.2L58.8 10.1L58.5 9.8L58.6 9.6L58.3 9.5L58.1 9.5L57.8 9.4L57.7 9.2L57.6 9L57.6 8.7L57.8 8.5L58.1 8.3L57.8 8.2L58.4 7.8L58.6 7.7L58.8 7.5L58.3 7.3L58.5 7.2L58.2 7L58.4 6.7L58.1 6.4L58.3 6.2L57.9 6L57.9 5.8L58.2 5.8L58.6 5.7L58.9 5.6L59.4 5.7L60.1 5.8L61.2 6.1L61.4 6.3L61.1 6.6L60.7 6.7L59.4 6.5L59.2 6.5L59.7 6.7L59.7 7.1L60.1 7.2L60.3 7.3L60.3 7.1L60.1 7L60.3 6.9L61 7.1L61.2 7L61 6.8L61.7 6.5L61.9 6.6L62.2 6.6L62.4 6.5L62.1 6.3L62.3 6.1L62.1 6L62.8 6L63 6.2L62.7 6.2L62.7 6.4L62.9 6.5L63.3 6.4L63.4 6.2L64 6.1L64.9 5.9L65.1 5.9L64.9 6.1L65.2 6.1L65.4 6L65.9 6L66.3 5.9L66.7 6L67 5.8L66.7 5.7L67.6 5.7L68 5.8L69 6.1L69.2 5.9L68.9 5.8L68.6 5.7L68.5 5.4L69 5L69.2 4.8L69.4 4.7L70.2 4.8L70 5.2L70.2 5.4L70.2 5.8L70.5 6L70.3 6.2L69.8 6.6L70.1 6.6L70.5 6.4L70.8 6.2L70.7 6L70.8 5.8L70.5 5.8L70.7 5.4L70.3 5.2L70.8 5L70.7 4.8L70.9 4.8L70.9 5.2L71.2 5.2L71.1 5L71.5 4.9L72.1 4.9L72.6 5.1L72.4 4.8L72.4 4.5L72.8 4.5L73.5 4.5L74.1 4.5L73.9 4.3L74.2 4.1L74.5 4.1L75.1 4L75.8 4L76.6 3.9L76.9 3.9L77.5 3.8L78 3.8L78.1 3.6L78.3 3.5L79 3.4L79.5 3.5L79.1 3.6L79.7 3.6L79.8 3.8L80 3.7L80.9 3.7L81.5 3.8L81.7 3.9L81.6 4.1L81.3 4.2L80.6 4.3L80.4 4.4L80.7 4.4L81.1 4.5L81.4 4.5L81.7 4.6L82.1 4.5L83 4.6L84.2 4.7L84.2 4.5L84.8 4.6L85.3 4.6L85.7 4.7L85.8 4.9L86 5.2L86.5 5.3L86.7 5L87.2 5.2L87.7 5.1L88.2 5.2L88.4 5.1L88.9 5.1L88.7 4.9L89 4.8L91.5 4.9L91.8 5.1L92.5 5.3L93.6 5.3L94.2 5.3L94.4 5.4L94.4 5.6L94.7 5.7L95.1 5.7L95.6 5.6L96.1 5.7L96.6 5.7L97.1 5.9L97.4 5.8L97.2 5.7L97.3 5.5L98.2 5.6L98.8 5.6L99.6 5.7L100 5.8L100 7L99.6 7.1L99.3 7.1L99.5 7.2L99.7 7.4L99.9 7.6L99.3 7.6L98.5 7.8L98.2 7.9L97.8 8.1L97.4 8.2L97.3 8.4L96.9 8.2L96.2 8.4L95.8 8.4L95.4 8.4L95.3 8.6L95 8.8L95.3 9L95.3 9.4L95 9.4L94.9 9.6L95 9.8L94.5 9.9L94.5 10.2L94 10.3L94 10.6L93.6 10.8L93.4 10.6L93.3 10.2L93.2 9.6L93.3 9.2L93.5 9.1L93.6 8.9L94 8.9L94.5 8.5L95 8.2L95.5 8L95.7 7.6L95.3 7.6L95.2 7.9L94.5 8.2L94.3 7.8L93.5 7.9L92.8 8.4L93.1 8.6L92.4 8.6L92 8.7L92 8.5L91.6 8.4L91.3 8.6L90.4 8.5L89.5 8.6L88.6 9.1L87.5 9.8L88 9.8L88.1 10L88.4 10.1L88.6 9.9L88.9 9.9L89.3 10.3L89.3 10.5L89.1 10.8L89 11.1L88.9 11.5L88.5 11.9L88.4 12.1L88 12.5L87.6 12.8L87.1 13.1L86.9 13.1L86.7 13L86.4 13.2L86.5 12.7L86.4 12.5L86.6 12.4L87 12.5L87.2 12.2L87.3 11.9L87.5 11.5L87 11.6L86.8 11.7L86.4 11.7L86.3 11.5L85.9 11.3L85.5 11.2L85.4 10.9L85.3 10.7L85 10.3L84.7 10.2L84.3 10.2L84 10.2L83.6 10.2L83.4 10.3L83.5 10.6L83.1 10.9L83.1 11.1L82.7 11.2L82.4 11.1L82.1 11.2L81.9 11.1L81.4 11.2L81 11.3L80.7 11.4L80.4 11.3L80.1 11.3L79.7 11L79.4 11L79.1 11L78.8 11.1L78.4 11L78.4 10.8L78 10.7L77.8 10.7L77.5 10.5L77.2 10.8L77.3 11L77 11.2L76.6 11.1L76.3 11.1L75.9 11L75.6 10.9L75.2 11L74.7 11.3L74.4 11.3L74.1 11.2L73.8 11.2L73.6 11.1L73.4 11L73.2 10.8L72.8 10.9L72.4 10.7L72.2 10.9L71.6 10.2L71.3 10L70.7 10.1L70.4 10.1L70.1 9.9L69.8 10L69.7 9.7L69.2 9.6L68.9 9.7L68.2 9.8L67.1 10L66.9 10.1L67.1 10.3L66.9 10.4L66.7 10.6L67.1 10.8L66.6 10.9L66.2 10.8L65.8 10.8L65.5 10.9L65.1 10.8L64.5 10.6L64.1 10.6L63.5 10.9L63.5 11.1L63.2 11L63 11.3L62.9 11.6L63.1 11.7L63.3 11.7L63.5 11.9L63.5 12.1ZM76 2.5L76.7 2.4L77.2 2.6L77.8 2.8L77.8 3.1L77.2 3.1L76.4 3L75.9 2.9L75.7 2.7L75.3 2.7L76 2.5ZM78.6 3L79.3 3.1L77.6 3.4L78.1 3L78.4 3L78.6 3ZM88.6 3.9L89.3 3.9L90.3 4L90.1 4.2L89.1 4.2L88.6 4.3L88 4.1L88.2 3.9L88.6 3.9ZM91.2 4.1L91.9 4.1L91.5 4.3L91.1 4.2L90.6 4.1L91.2 4.1ZM88.9 4.6L89.1 4.5L89.5 4.5L89.9 4.6L89.5 4.7L88.9 4.6ZM62.5 2.6L63 2.6L63.4 2.6L63.6 2.6L63.9 2.5L64.3 2.6L63.8 2.7L63.6 2.7L63.2 2.8L62.9 2.7L63.1 2.6L62.5 2.6ZM56.3 9.9L55.8 9.9L55.5 9.9L55.9 9.7L56.2 9.7L56.3 9.9ZM64.9 4.5L65.5 4.3L65.5 4.1L66.1 4L67 3.8L67.9 3.8L68.4 3.7L68.9 3.6L69.1 3.7L68.9 3.8L68 4L67.1 4.1L66.2 4.4L65.8 4.6L65.4 4.9L65.5 5.1L66 5.4L65.8 5.4L64.9 5.3L64.3 5.1L64.6 4.9L65.1 4.5L64.9 4.5ZM89.7 10.1L89.8 10.3L89.8 10.6L89.9 10.9L90.2 11.4L89.8 11.3L89.6 11.7L89.9 12L89.9 12.2L89.7 12L89.5 12.2L89.4 12L89.4 11.7L89.4 11.4L89.5 11.2L89.5 10.8L89.3 10.6L89.4 10.2L89.6 10.1L89.5 9.9L89.7 10.1ZM1.4 6.3L1.4 6.5L1.6 6.6L1.5 6.4L2.3 6.4L2.8 6.7L2.5 6.8L2.1 6.8L2.1 7.1L1.7 7.1L1.5 7L1.1 7L1.1 6.8L0.8 6.8L0.5 6.8L0.3 6.7L0 6.7L0.2 6.8L0 7L0 5.8L0.7 6.1L1.4 6.3ZM59.3 12.2L59.6 12.2L59.9 12.4L60.1 12.4L59.8 12.5L59.4 12.7L59.3 12.5L59 12.4L59.3 12.3ZM33 39.4L33.3 39.2L33.6 39.3L34 39.3L33.5 39.5L33.1 39.5ZM54.2 2.9L54.7 2.8L55.1 2.9L56 3.1L55.3 3.2L55.1 3.4L54.9 3.4L54.8 3.7L54.4 3.7L53.8 3.5L54.1 3.4L53.7 3.3L53.1 3.1L52.9 2.9L53.7 2.8L54.2 2.9ZM58.6 5.7L58.2 5.8L57.9 5.8L58.1 5.6L57.7 5.5L57.3 5.6L57.1 5.8L56.9 5.9L56.6 5.9L56.2 5.9L55.9 5.7L55.7 5.8L55.5 6L55 6L54.7 6.1L54.5 6.3L54.2 6.6L53.8 7L53.8 7.2L53.5 7.2L53.3 7.5L53.3 7.8L53.5 8L53.4 8.3L53.2 8.5L53.1 8.7L52.9 8.5L52.3 8.8L52 8.9L51.6 8.7L51.5 8.4L51.4 7.8L51.6 7.6L52.4 7.4L52.9 7.1L53.4 6.7L54.1 6.2L54.6 6L55.3 5.6L55.9 5.5L56.4 5.5L56.8 5.3L57.3 5.3L57.8 5.2L58.7 5.4L58.3 5.5L58.6 5.7ZM57.6 2.8L57.2 2.9L56.4 2.9L55.6 2.9L55.1 2.8L54.8 2.7L55.7 2.6L56.1 2.7L56.4 2.6L57.1 2.7L57.6 2.8ZM56.9 3.4L56.2 3.5L55.8 3.4L56.4 3.2L56.9 3.4ZM37 2L37.9 1.9L38.9 1.9L39.3 1.8L40.3 1.8L42.5 1.8L44.2 2L43.7 2.1L42.6 2.1L41.1 2.2L41.3 2.2L42.3 2.2L43.1 2.3L43.6 2.2L43.9 2.3L43.6 2.5L44.3 2.4L45.6 2.2L46.5 2.3L45.5 2.6L45.3 2.7L44.4 2.7L45.1 2.7L44.8 2.9L44.5 3.1L44.5 3.4L44.9 3.6L44.4 3.6L44 3.7L44.5 3.9L44.6 4.1L44.3 4.1L44.6 4.4L44 4.4L44.3 4.5L43.8 4.6L43.5 4.6L43.8 4.8L43.3 4.8L43.1 4.9L43.5 5L43.9 5.1L44 5.4L43.5 5.4L43.2 5.3L42.9 5.2L42.7 5.5L43.4 5.5L43.8 5.5L43 5.8L42.3 6L41.5 6.1L41.2 6.1L40.9 6.2L40.5 6.5L39.9 6.7L39.7 6.7L39.3 6.8L38.9 6.8L38.7 7L38.7 7.2L38.6 7.4L38.1 7.6L38.2 7.8L38.1 8L38 8.3L37.6 8.3L37.1 8.1L36.6 8.1L36.3 7.9L36.1 7.7L35.7 7.3L35.5 7.1L35.5 6.9L35.1 6.6L35.2 6.4L35 6.3L35.3 6L35.7 5.9L35.9 5.6L35.6 5.7L35.4 5.7L35.2 5.8L34.8 5.7L34.8 5.5L34.9 5.3L35.2 5.3L35.7 5.4L35.2 5.2L35 5.1L34.7 5.2L34.5 5.1L34.8 4.8L34.6 4.7L34.4 4.5L34.1 4.2L33.7 4.1L33 3.9L32.4 3.8L31.6 3.9L31 3.9L30.6 3.8L30.2 3.6L30.9 3.5L31.5 3.5L30.3 3.4L29.6 3.3L30.7 3.1L31.7 2.9L31.9 2.8L31.1 2.7L31.3 2.6L32.3 2.4L32.7 2.4L33.3 2.2L34.1 2.2L35 2.2L35.3 2.3L36 2.1L36.7 2.2L37.1 2.2L37.6 2.3L37 2.2L37 2ZM54.5 32.9L54.7 32.8L54.8 33L55 33L55.3 33L55.5 32.9L55.5 31.9L55.8 32.2L55.7 32.4L56 32.4L56.3 32.2L56.5 32L56.7 32.1L57 32.1L57.2 32L57.4 31.8L57.5 31.5L57.8 31.3L58.2 31.1L58.4 31.2L58.7 31.2L58.8 31.6L58.9 31.8L58.8 32.1L58.6 32.1L58.5 32.3L58.7 32.6L58.9 32.5L59.1 32.4L59.1 32.6L59 32.9L58.8 33.1L58.6 33.3L58.5 33.5L58.3 33.7L58 33.9L57.8 34.1L57.6 34.2L57.3 34.3L57 34.4L56.6 34.4L56.4 34.4L56 34.5L55.7 34.6L55.4 34.7L55.2 34.6L55.1 34.4L55.1 34.2L55.1 34L55.1 33.8L54.9 33.5L54.7 33.3L54.5 32.9ZM58 33L58.1 33.3L57.9 33.4L57.7 33.5L57.5 33.3L57.6 33.1L57.8 33L58 33ZM17.5 16L17.8 15.9L18.1 15.9L18.5 16.1L19.2 16.3L19.7 16.3L19.9 16.3L20.4 16.2L20.7 16.4L20.9 16.6L21 16.8L21.4 17L21.5 16.7L21.8 16.7L22 16.8L22.1 17L22.2 17.2L22.4 17.4L22.5 17.7L22.7 17.8L22.9 17.8L22.9 18.1L22.9 18.3L22.8 18.6L22.8 18.8L22.9 19.1L23 19.3L23.2 19.5L23.4 19.8L23.7 19.8L23.8 20L24 19.9L24.2 19.9L24.4 19.8L24.6 19.8L24.8 19.6L24.9 19.2L25.1 19.1L25.4 19L25.7 19L25.9 19.1L25.7 19.4L25.7 19.6L25.6 19.9L25.4 19.9L25.2 20L25 20.1L24.7 20.1L24.7 20.3L24.9 20.4L24.5 20.5L24.4 20.8L24.4 21L24.1 20.7L23.9 20.6L23.7 20.5L23.5 20.5L23.3 20.6L23 20.6L22.8 20.5L22.5 20.4L22.3 20.4L22 20.2L21.8 20.1L21.5 20L21.2 19.9L20.8 19.6L20.6 19.3L20.8 19.1L20.7 18.9L20.5 18.7L20.3 18.4L20 18.2L19.9 18L19.6 17.9L19.6 17.7L19.3 17.5L19.3 17.3L19.1 17.2L18.8 17L18.7 16.7L18.6 16.4L18.4 16.2L18.1 16.2L18.1 16.4L18.1 16.6L18.4 16.9L18.6 17.1L18.7 17.3L18.8 17.5L19 17.6L19.1 17.9L19.2 18.1L19.3 18.3L19.5 18.4L19.6 18.6L19.4 18.7L19.4 18.5L19.2 18.3L19 18.2L18.8 18.1L18.8 17.9L18.7 17.7L18.5 17.6L18.2 17.5L18 17.3L18.2 17.3L18.3 17.1L18.1 16.9L17.9 16.8L17.8 16.6L17.7 16.4L17.6 16.2L17.5 16ZM34 33.4L34.2 33.4L34.5 33.6L34.8 33.7L35.1 33.9L35.2 34.1L35.2 34.4L35.1 34.6L34.7 34.7L34.5 34.7L34.1 34.6L33.9 34.6L33.8 34.4L33.8 34.2L33.8 33.9L33.9 33.6L34 33.4ZM35.2 34.4L35.1 34.2L35.1 33.9L34.8 33.7L34.6 33.6L34.2 33.4L34 33.4L34.4 33L34.7 32.7L34.9 32.6L35.1 32.5L35.1 32.3L35 32.1L34.8 32.1L34.9 31.8L34.8 31.6L34.6 31.7L34.6 31.5L34.6 31.3L34.3 31.1L33.9 31.1L33.9 30.8L33.8 30.6L33.9 30.4L34 30L33.8 29.8L33.8 29.5L33.3 29.5L33.2 29.2L33.2 29L33.2 28.8L33 28.7L32.7 28.7L32.4 28.5L32.1 28.5L31.8 28.2L31.9 28L31.9 27.7L31.5 27.8L31.3 27.9L31.1 28L30.9 28.1L30.7 28L30.5 28.1L30.4 27.6L30.2 27.8L29.9 27.8L29.8 27.6L29.6 27.3L29.4 27.1L29.5 26.9L29.7 26.8L29.7 26.6L30.1 26.3L30.3 26.2L30.6 26.2L30.7 25.4L30.7 25.2L30.5 25.1L30.6 24.8L30.8 24.8L30.6 24.7L30.6 24.5L31.1 24.5L31.3 24.5L31.4 24.7L31.6 24.8L31.8 24.8L32.1 24.6L32.4 24.4L32.1 24.3L32.1 24.1L32.1 23.9L32.3 23.9L32.5 24L32.8 23.8L33.1 23.7L33.3 23.5L33.3 23.7L33.5 23.9L33.3 24.2L33.4 24.4L33.6 24.6L33.8 24.6L34 24.5L34.2 24.5L34.4 24.5L34.5 24.3L34.7 24.3L34.9 24.4L35.1 24.3L35.3 24.4L35.5 24.1L35.7 23.8L35.8 24L36 24.5L36.1 24.7L35.9 24.9L36.5 25.1L36.5 25.3L36.7 25.2L37.1 25.3L37.5 25.4L37.7 25.6L37.9 25.7L38.5 25.8L38.9 25.8L39.3 26L39.7 26.3L39.9 26.4L40.1 26.4L40.3 26.9L40.2 27.5L40.1 27.7L39.7 28.1L39.5 28.4L39.3 28.6L39.2 28.8L39.2 29.4L39.1 29.8L39.1 30L39 30.4L38.7 30.8L38.6 31.1L38.4 31.2L38.3 31.4L38 31.4L37.6 31.5L37.4 31.6L37.1 31.7L36.8 31.9L36.5 32.2L36.5 32.4L36.5 32.8L36.4 33L36.2 33.1L35.9 33.6L35.7 33.8L35.5 34L35.4 34.2L35.2 34.4ZM30.7 28L30.9 28.1L31.1 28L31.3 27.9L31.5 27.8L31.9 27.7L31.8 27.9L31.8 28.2L32.1 28.5L32.4 28.5L32.6 28.6L32.9 28.7L33.2 28.8L33.2 29L33.3 29.2L33.3 29.5L33.8 29.5L33.8 29.7L34 29.9L34 30.3L33.9 30.5L33.6 30.4L33.3 30.4L32.8 30.5L32.7 30.7L32.6 31.2L32.2 31.1L32.1 31.3L32 31.1L31.6 31.1L31.4 31.3L31.2 31.4L31.1 31L30.9 30.7L31 30.4L30.8 30.3L30.8 30.1L30.7 29.9L30.8 29.6L30.7 29.4L30.7 29.2L30.8 29L30.9 28.8L30.9 28.6L30.7 28ZM30.6 26.2L30.3 26.2L30.1 26.3L29.8 26.5L29.7 26.7L29.5 26.9L29.4 27.1L29.6 27.3L29.7 27.5L29.9 27.8L30.2 27.8L30.4 27.6L30.4 28.1L30.7 28L30.9 28.5L30.9 28.8L30.8 29L30.7 29.2L30.7 29.4L30.8 29.6L30.7 29.9L30.5 30.1L30.2 29.9L29.6 29.5L29.1 29.2L28.9 29.1L28.8 28.8L28.6 28.4L28.3 27.9L28 27.3L27.8 27L27.6 26.8L27.4 26.7L27.4 26.3L27.5 26.1L27.7 25.9L27.7 26.1L27.9 26.2L28 26.4L28.2 26.3L28.2 26.1L28.4 25.8L28.7 25.7L29 25.4L29.1 25L29.3 25.1L29.4 25.3L29.7 25.6L29.9 25.7L30.1 25.6L30.3 25.6L30.5 25.8L30.4 26L30.6 26.2ZM31.4 24.7L31.3 24.5L31.1 24.5L30.6 24.5L30.6 24.7L30.8 24.7L30.6 24.8L30.5 25.1L30.7 25.2L30.7 25.4L30.6 26.2L30.4 26L30.5 25.8L30.3 25.6L30.1 25.6L29.9 25.7L29.7 25.6L29.5 25.4L29.3 25.1L29.1 25L28.9 25L28.7 24.9L28.5 24.9L28.1 24.6L28.1 24.4L28.4 24.3L28.5 24.1L28.6 23.9L28.5 23.7L28.5 23.4L28.5 23.1L28.4 22.9L28.5 22.6L28.7 22.6L28.9 22.4L29 22.1L29.2 21.9L29.4 21.9L29.6 21.9L29.8 21.7L30.1 21.5L30.2 21.7L30 21.8L29.8 22L29.7 22.3L29.6 22.5L29.8 22.5L29.9 22.7L29.9 22.9L30 23.1L30.4 23L30.7 23.3L31 23.3L31.2 23.3L31.2 23.5L31.2 23.7L31.2 23.9L31.3 24.1L31.3 24.3L31.4 24.7ZM28.5 22.6L28.5 22.8L28.4 23L28.2 22.8L28.2 22.6L28 22.5L27.8 22.6L27.6 22.8L27.8 22.9L27.5 23L27.5 22.8L27.3 22.7L27.1 22.7L27 22.5L27.1 22.3L27.2 22.5L27.4 22.6L27.6 22.5L27.8 22.4L28 22.3L28.2 22.4L28.4 22.5ZM27.1 22.3L27 22.5L27 22.7L26.8 22.7L26.8 22.5L26.6 22.4L26.5 22.2L26.3 22.3L26.2 22.1L26.2 21.9L26.4 22L26.6 21.9L26.8 22L26.9 22.2L27.1 22.3ZM26.8 22L26.6 22L26.4 22L26.2 21.9L26 21.7L25.8 21.5L25.6 21.4L25.8 21.4L25.9 21.2L26.1 21.1L26.3 21L26.5 20.9L26.7 20.9L26.9 20.8L26.9 21L26.8 21.2L26.8 21.4L26.8 21.6L26.8 21.8L26.8 22ZM26.9 20.8L26.7 20.9L26.5 20.9L26.3 21L26.2 21.2L26 21.2L25.8 21.4L25.6 21.3L25.6 21.1L25.4 21.2L25.3 21L25.2 20.8L25.4 20.7L25.6 20.6L25.9 20.6L26.1 20.6L26.3 20.6L26.5 20.6L26.7 20.7L26.9 20.8ZM25.2 21L25.4 21.1L25.6 21.1L25.6 21.3L25.4 21.3L25.2 21.3L25 21.2L25.1 21ZM24.4 21L24.4 20.8L24.5 20.5L24.9 20.5L24.7 20.3L24.7 20.1L25 20.1L25.2 20.1L25.2 20.3L25.2 20.6L25.4 20.6L25.2 20.8L25.2 21L25 21.1L24.8 21.1L24.5 21.1ZM25.2 20.1L25.4 19.9L25.5 20.1L25.5 20.3L25.4 20.5L25.2 20.6L25.2 20.3L25.2 20.1ZM33.1 23.6L32.8 23.8L32.6 23.9L32.3 23.9L32 23.8L32.1 24.1L32.1 24.3L32.4 24.3L32.2 24.5L31.8 24.7L31.6 24.8L31.4 24.7L31.3 24.4L31.2 24.2L31.3 24L31.2 23.7L31.2 23.5L31.3 23.3L31 23.3L30.8 23.3L30.5 23.1L30 23.1L29.9 22.9L29.9 22.7L29.8 22.5L29.6 22.5L29.7 22.3L29.7 22.1L29.9 21.9L30.2 21.7L30 21.8L30.1 22L30 22.3L30.1 22.5L30.3 22.3L30.2 22L30.5 21.8L30.6 21.6L30.7 21.8L30.9 21.8L31 22L31.3 22.1L31.6 22L31.8 22.2L32 22.2L32.1 22L32.5 22L32.8 22L32.6 22.1L32.9 22.3L33.1 22.4L33.1 22.6L33.3 22.6L33.2 22.8L33.3 23L33 23.1L33 23.3L33.1 23.6ZM34.3 24.5L34.1 24.5L33.9 24.6L33.7 24.6L33.4 24.5L33.3 24.2L33.4 24L33.4 23.8L33.3 23.6L33.1 23.6L32.9 23.3L33 23.1L33.2 23.1L33.2 22.9L33.4 22.7L33.6 22.8L33.8 23L34 23.2L34.1 23.6L33.9 23.7L33.9 23.9L34 24.1L34.3 24.5ZM34.9 24.4L34.7 24.3L34.5 24.3L34.4 24.5L34.1 24.2L33.9 23.9L33.9 23.7L34.1 23.6L34.1 23.3L34.5 23.4L34.7 23.3L35 23.4L34.9 23.6L34.9 23.8L35 24L34.9 24.2L34.9 24.4ZM35.7 23.8L35.5 24.1L35.4 24.3L35.2 24.4L35 24.4L34.9 24.2L35 24L34.9 23.8L34.9 23.6L35 23.4L35.3 23.5L35.6 23.7ZM51.7 11.3L52.2 11.4L52.1 11.6L52.1 11.8L51.9 11.8L51.7 12L51.9 12.2L52 12.4L51.9 12.7L52.1 12.7L52.1 12.9L51.8 13L51.3 12.9L50.9 13L50.8 13.2L50.5 13.2L50.2 13.1L49.6 13L49.6 12.8L49.7 12.2L49.4 11.9L49.2 11.8L48.8 11.7L48.7 11.5L49.1 11.4L49.6 11.5L49.5 11.2L49.7 11.3L50.4 11.1L50.5 10.8L50.7 10.8L50.9 10.9L51.2 11.1L51.6 11.2ZM29.1 25L29.1 25.3L28.7 25.7L28.4 25.8L28.2 26.1L28.2 26.3L28 26.4L27.9 26.2L27.7 26.2L27.7 25.9L27.8 25.7L27.5 25.6L27.5 25.3L27.7 25.1L27.8 24.9L27.9 24.7L28.1 24.6L28.4 24.8L28.7 24.9L28.9 25L29.1 25ZM27.1 18.6L27.4 18.6L27.6 18.6L27.9 18.7L28.2 18.7L28.6 19L28.8 19.1L29 19.2L29.2 19.3L29.4 19.4L29.2 19.5L29 19.5L28.8 19.5L28.4 19.5L28.6 19.3L28.3 19.2L28.1 19L27.7 18.9L27.3 18.8L27 18.7L26.8 18.8L26.5 18.9L26.6 18.7L26.9 18.6L27.1 18.6ZM58.7 31.2L58.5 31.2L58.3 31.1L58 31L57.8 31L57.7 30.8L57.3 30.4L57.2 30.2L57 29.9L57.3 30L57.5 30L57.7 29.8L57.9 29.6L58.2 29.3L58.4 29.3L58.7 29.4L59 29.6L59.1 30L59.1 30.2L59.1 30.4L59.1 30.6L59 30.9L58.7 31.2ZM58.2 31.1L57.8 31.3L57.5 31.5L57.4 31.7L57.2 31.9L57.1 32.1L56.7 32.1L56.5 32L56.3 32.1L56.1 32.3L55.8 32.5L55.8 32.2L55.6 31.9L55.5 31.1L55.8 31.1L55.8 30.1L56 30.1L56.4 30L56.7 30L57 29.9L57.1 30.1L57.3 30.4L57.6 30.7L57.8 31L58 31L58.2 31.1ZM55.5 31.9L55.5 32.9L55.3 33L55.1 33.1L54.8 33L54.7 32.8L54.5 32.9L54.3 32.7L54.2 32.5L54.2 32.3L54.1 32.1L54 31.6L54 31.3L54 31.1L53.7 30.8L53.6 30.5L53.5 30.3L53.3 30L53.3 29.8L53.6 29.7L53.9 29.8L55.1 29.8L55.3 29.9L55.9 30L56.4 29.9L56.7 29.8L56.9 29.8L56.8 30L56.5 30.1L56 30.1L55.8 30.1L55.8 31.1L55.5 31.1L55.5 31.9ZM45.4 21.2L45.2 21L45.4 20.7L45.4 20.5L45.7 20.5L46 20.4L46.3 20.5L46.4 20.7L46.6 20.9L46.6 21.1L46.7 21.3L46.8 21.5L46.6 21.5L46.3 21.5L45.7 21.5L45.5 21.5L45.3 21.3L45.6 21.4L45.8 21.2L46 21.3L46.2 21.2L46 21.2L45.8 21.1L45.4 21.2ZM46.8 21.5L46.8 21.3L46.6 21.1L46.6 20.9L46.8 20.7L47 20.8L47.2 20.7L48.5 20.7L48.5 20.5L48.3 19.3L48.2 18.1L48.6 18.1L49.6 18.7L50.5 19.3L50.7 19.5L50.9 19.5L50.9 19.7L51.2 19.7L51.2 20.3L51 20.5L51 20.7L50.8 20.7L50.4 20.7L50.1 20.9L49.9 20.9L49.7 20.8L49.4 21L49.2 21.2L49 21.3L48.8 21.3L48.8 21.5L48.5 21.7L48.5 22L48.4 22.2L48.2 22.1L47.9 22.2L47.7 22.1L47.6 21.9L47.6 21.7L47.4 21.6L47.2 21.7L47 21.6L46.8 21.6ZM45.3 19.2L46.4 19.1L46.4 18.7L46.4 18.5L46.7 18.5L46.7 17.8L47.6 17.8L47.6 17.4L48.6 18.1L48.2 18.1L48.3 19.3L48.5 20.5L48.5 20.7L47.3 20.7L47 20.8L46.8 20.7L46.7 20.9L46.4 20.7L46.3 20.5L46.1 20.5L45.8 20.4L45.5 20.4L45.5 20.2L45.5 20L45.5 19.7L45.5 19.4L45.3 19.2ZM50.7 23.3L50.5 23.3L50.4 23.1L50.5 22.5L50.4 22.3L50.2 22.1L50.2 21.9L50.4 21.8L50.6 21.7L50.8 21.6L51 21.8L51.1 22L51 22.2L50.9 22.4L50.8 22.6L50.8 22.8L50.7 23.3ZM54.1 18.6L54.2 19.1L54.4 19.3L54.4 19.5L54.3 20L54.2 20.4L53.9 20.6L53.8 21L53.9 21.3L54.1 21.3L53.9 21.4L53.7 21.2L53.4 21.4L53.2 21.3L53 21.3L52.8 21.3L52.6 21.4L52.2 21.3L52 21.4L51.8 21.3L51.5 21.1L51.2 21.2L51.1 21.4L51 21.8L50.8 21.6L50.6 21.7L50.6 21.5L50.3 21.4L50.1 21.1L50.1 20.9L50.3 20.8L50.8 20.7L51 20.7L51 20.5L51.2 20.3L51.2 19.7L51.6 19.6L52.4 19L53.3 18.5L53.8 18.6L53.9 18.8L54.1 18.6ZM50.7 23.3L50.8 22.8L50.8 22.6L50.9 22.4L51 22.2L51.1 22L51 21.8L51 21.5L51.1 21.2L51.5 21.1L51.8 21.3L52 21.4L52.2 21.3L52.5 21.4L52.8 21.3L53 21.3L53.2 21.3L53.4 21.4L53.6 21.2L53.9 21.5L54 21.7L53.8 22L53.7 22.2L53.6 22.4L53.5 22.6L53.4 22.8L53.3 23.1L53.1 23.2L52.9 23L52.6 23.2L52.4 23.5L52.4 23.7L52.1 23.8L51.9 23.8L51.6 23.8L51.5 23.6L51.4 23.4L51.2 23.3L51 23.3L50.7 23.3ZM54 21.4L54.1 21.6L54.2 21.8L54.1 22L54.3 22.2L54.1 22.2L53.9 22.2L54 22.5L54.2 22.6L54.3 22.9L54.1 23.2L54 23.5L54 23.7L54.2 23.8L54.3 24.1L54.4 24.3L54.4 24.5L54.2 24.5L54 24.4L53.6 24.4L53.4 24.4L53.1 24.4L52.7 24.4L52.7 24.1L52.5 23.9L52.4 23.7L52.4 23.5L52.6 23.2L52.8 23L53.1 23.2L53.3 23.1L53.3 22.9L53.4 22.7L53.6 22.4L53.7 22.2L53.8 22L54 21.8L54 21.6L53.9 21.4ZM50.2 21.9L50.2 22.1L50.4 22.3L50.5 22.5L50.4 23.1L50.5 23.3L50.3 23.4L50.2 23.1L50.1 22.9L50.2 22.7L50.1 22.4L50.1 22.2L50 22L50.2 21.9ZM50 21.9L50.1 22.2L50.1 22.4L50.1 22.6L50.1 22.9L50.2 23.1L50.2 23.3L49.9 23.5L49.7 23.6L49.5 23.7L49.2 23.6L49.1 23.3L49.2 23L49.3 22.7L49.2 22.3L49.2 22.1L49.7 21.9L49.9 21.9ZM47.8 22.2L48.1 22.2L48.3 22.1L48.5 22.1L48.7 22.3L48.9 22.3L49.2 22.3L49.3 22.7L49.2 23L49.1 23.3L49.2 23.5L48.9 23.6L48.7 23.6L48.4 23.6L48.2 23.7L47.9 23.8L47.9 23.6L47.9 23.4L47.7 23.3L47.7 23.1L47.6 22.9L47.7 22.7L47.8 22.4L47.7 22.2ZM46.2 21.5L46.5 21.6L46.8 21.6L47 21.6L47.2 21.7L47.4 21.6L47.6 21.7L47.6 21.9L47.7 22.1L47.7 22.3L47.8 22.6L47.7 22.9L47.5 23L47.4 22.8L47.3 22.6L47.1 22.7L47 22.5L47 22.3L46.7 22.2L46.5 22.3L46.3 22.5L46.1 22.3L45.9 22L45.9 21.8L46.1 21.8L46.2 21.6ZM45.4 21.6L45.6 21.5L46.2 21.5L46.2 21.7L46 21.8L45.8 21.9L45.6 21.8L45.4 21.6ZM47.7 22.9L47.7 23.1L47.7 23.3L47.9 23.4L47.9 23.6L47.9 23.8L47.5 23.7L47.2 23.4L47 23.3L46.8 23.1L46.9 22.9L47.2 22.7L47.4 22.8L47.4 23L47.6 22.9ZM46.3 22.5L46.5 22.4L46.7 22.2L46.9 22.2L47 22.4L47.1 22.6L47 22.8L46.9 23L46.7 23.1L46.5 23L46.4 22.8L46.3 22.5ZM48.5 22.1L48.6 21.8L48.8 21.5L48.8 21.3L49 21.3L49.2 21.2L49.4 21L49.7 20.8L49.9 20.8L50.1 20.9L50.1 21.1L50.3 21.3L50.6 21.5L50.6 21.7L50.4 21.8L50.2 21.9L50 21.9L49.8 22L49.2 22L49.2 22.3L49 22.2L48.8 22.3L48.6 22.2ZM57.6 23.5L57.3 23.6L57.1 23.5L56.9 23.6L56.5 23.7L56.3 23.7L56.2 23.9L56 23.8L55.8 23.8L55.6 23.7L55.4 23.6L55.2 23.8L55.1 24L54.9 24L54.6 24.1L54.4 24.4L54.4 24.2L54.2 23.9L54 23.7L54 23.5L54 23.3L54.2 22.9L54.5 22.9L55 22.8L55.3 22.6L55.6 22.5L55.8 22.4L56 22.1L56.2 22L56.4 21.9L56.5 22.2L56.5 22.4L56.6 22.6L56.8 22.7L57 22.8L57.2 23.1L57.4 23.3L57.6 23.5ZM55.1 24L55.1 24.2L55 24.5L54.9 24.8L54.9 25L54.9 25.2L54.7 25.3L54.6 25.5L54.4 25.8L54.4 26L54.2 26.2L54.1 26.4L53.9 26.3L53.7 26.4L53.5 26.2L53.3 26.4L53.1 26.1L53.3 26L53.2 25.8L53.5 25.7L53.5 25.5L53.6 25.7L53.9 25.7L54 25.4L54 25.2L53.8 25L54 24.7L53.7 24.6L53.6 24.4L54 24.4L54.2 24.5L54.4 24.5L54.6 24.1L54.8 24L55.1 24ZM53.1 24.4L53.3 24.4L53.6 24.4L53.7 24.6L53.9 24.6L53.8 25L54 25.2L54 25.4L54 25.6L53.6 25.7L53.5 25.5L53.5 25.7L53.3 25.7L53.3 26L53.1 26.1L52.8 25.8L52.6 25.6L52.4 25.3L52.5 25.1L52.6 24.9L52.6 24.7L53.1 24.7L53.1 24.4ZM52.7 24.4L53.1 24.4L53.1 24.7L52.7 24.7L52.7 24.4ZM58.5 27.3L58.7 27.4L58.9 27.5L59.1 27.6L59.3 27.9L59.2 28.2L59.3 28.5L59.1 28.8L58.4 29.1L58.4 29.3L58.2 29.3L58 29.5L57.7 29.8L57.5 30L57.3 30L57 29.9L56.7 29.8L56.4 29.9L56.3 29.7L56.1 29.5L56.1 28.6L56.7 28.6L56.7 28.4L56.7 28.1L56.9 28.1L57.1 28.1L57.2 28.3L57.4 28.3L57.6 28.4L57.8 28.4L58 28.7L58.2 28.7L58.2 28.4L58 28.3L57.9 28L58 27.7L57.9 27.5L58.1 27.3L58.4 27.3ZM59.1 27.6L59.4 27.6L59.5 27.8L59.6 28.2L59.5 28.4L59.6 28.8L59.8 28.9L59.9 29.1L59.9 29.4L59.7 29.7L59.6 29.5L59.5 29.3L59.6 29.1L59.4 29L59.2 28.9L59.2 28.6L59.2 28.2L59.3 28L59.2 27.7ZM59.6 28.2L59.8 28.2L60.1 28.3L60.4 28.2L60.7 28.1L61 28L61.2 27.9L61.2 28.3L61.3 28.5L61.3 28.9L61.3 29.1L61.2 29.3L61.1 29.5L60.7 29.8L60.4 29.9L60.1 30.2L59.8 30.4L59.6 30.7L59.8 30.9L59.8 31.1L59.9 31.4L59.9 31.6L59.7 31.8L59.5 31.9L59.2 32L59 32.1L59.1 32.3L58.9 32.4L58.8 32.2L58.9 31.8L58.8 31.6L58.7 31.2L59 30.9L59 30.7L59.1 30.5L59.1 30.2L59.1 30L59.1 29.6L58.8 29.5L58.4 29.4L58.4 29.1L59.2 28.9L59.4 29L59.6 29.1L59.5 29.3L59.6 29.5L59.7 29.7L59.8 29.5L59.9 29.1L59.8 28.9L59.6 28.8L59.5 28.4L59.6 28.2ZM58.9 32.4L58.7 32.6L58.5 32.4L58.6 32.2L58.8 32.2L58.9 32.4ZM53.4 26.7L53.6 26.7L54.5 26.6L54.6 26.8L54.7 27L54.9 27.2L55.1 27.2L55.3 27.2L55.4 27L55.6 27L56 27L56 27.2L56.1 27.5L56.2 27.7L56.2 28.1L56.5 28L56.7 28.1L56.6 28.3L56.6 28.5L56.1 28.6L56.1 29.5L56.3 29.7L56.4 29.9L55.9 30L55.3 29.9L55.1 29.8L53.9 29.8L53.7 29.7L53.4 29.8L53.2 29.6L53.3 29.4L53.4 29.1L53.5 28.8L53.5 28.6L53.7 28.5L53.8 28.3L53.8 28.1L53.7 27.9L53.6 27.7L53.6 27.5L53.6 27.1L53.5 26.9L53.4 26.7ZM58.5 25.7L58.5 25.9L58.4 26.1L58.1 26.2L58.1 25.9L58.3 25.7L58.5 25.7ZM59.9 15.9L59.7 16.1L59.7 16.3L59.7 16.8L59.5 16.3L59.7 16.1L59.7 15.9L59.9 15.8ZM63.8 28.5L63.9 28.8L63.9 29.1L64 29.4L63.8 29.4L63.9 29.6L63.7 29.8L63.7 30L63.6 30.3L63.5 30.7L63.3 31.2L63.2 31.6L63.1 31.9L62.9 32L62.6 32.1L62.2 31.9L62.1 31.5L62 31.3L62 31.1L62.1 30.9L62.3 30.6L62.4 30.4L62.2 30.1L62.2 29.8L62.3 29.5L62.5 29.5L62.7 29.4L62.9 29.4L63 29.2L63.3 29.1L63.3 28.9L63.6 28.6L63.7 28.3L63.8 28.5ZM52.6 16.6L52.5 16.1L52.3 16L52.1 15.7L52.1 15.5L52.3 15.4L52.3 15.1L52.3 14.9L52.3 14.7L52.6 14.6L52.8 14.7L53.1 14.7L52.9 14.9L53 15.1L53 15.3L52.8 15.5L53 15.6L53.1 15.8L53.2 16L53 16.1L52.8 16.3L52.8 16.5L52.6 16.6ZM47.6 17.4L47.6 17L48 16.8L48.3 16.7L48.5 16.7L48.7 16.5L49 16.4L49 16.2L49.3 16.1L49.6 16L49.5 15.6L49.5 15.4L49.4 15.2L49.7 15.1L50 15L50.4 14.8L50.9 14.8L51.3 14.8L51.5 14.8L51.7 14.7L52 14.7L52.3 14.7L52.3 14.9L52.3 15.1L52.3 15.4L52.1 15.5L52.1 15.7L52.3 15.9L52.5 16.1L52.6 16.6L52.7 16.8L52.7 17L52.7 17.2L52.7 17.5L52.6 17.8L52.8 18L52.9 18.2L53.2 18.3L53.3 18.5L52.4 19L51.6 19.6L51.2 19.7L50.9 19.7L50.9 19.5L50.7 19.5L50.5 19.3L49.6 18.7L48.6 18.1L47.6 17.4ZM59.9 16L60.2 16L60.8 15.7L60.9 16.1L60.3 16.2L60.6 16.5L60.4 16.7L60.2 16.7L60 16.9L59.7 16.8L59.8 16.4L59.9 16.2L59.9 16ZM64.3 18.3L64.6 18.3L64.8 18.3L65 18.3L65.2 18.1L65.4 17.9L65.6 17.8L65.7 18.1L65.5 18.1L65.5 18.3L65.4 18.5L65.3 18.7L64.4 18.6L64.3 18.3ZM60.9 16.1L60.8 15.7L61.4 15.4L61.5 15.1L61.5 14.9L61.8 14.7L62.2 14.7L62.4 14.7L62.6 15L62.8 15.1L62.8 15.3L62.6 15.6L62.8 15.8L63.1 16L63.3 16.2L63.2 16.4L63.5 16.7L63.3 16.7L63.1 16.7L62.9 16.9L62.4 16.9L61.6 16.3L61.2 16.1L60.9 16.1ZM65.3 18.7L65.4 18.5L65.6 18.3L65.5 18.1L65.7 18.1L65.8 18.3L66.1 18.4L66.3 18.5L66.5 18.7L66.5 19L66.2 19.3L66 19.5L66.1 19.7L65.9 19.7L65.7 19.8L65.7 20L65.5 20L65.4 20.2L65.2 20.3L64.9 20.4L64.7 20.2L64.4 19.7L65.3 19.4L65.5 18.9L65.3 18.7ZM78.5 21.6L78.4 21.3L78.6 21L79 21L79.2 21L79.5 21.1L79.8 21.1L79.9 21.6L79.4 21.8L79.5 22L79.2 22L79 22.1L78.7 22L78.5 21.6ZM79.2 21L79 21L78.6 21L78.4 21.3L78.5 21.6L78.2 21.5L78 21.5L78 21.3L77.8 21.3L77.8 21.6L77.6 22L77.5 22.2L77.6 22.4L77.9 22.7L77.9 22.9L78.1 23.1L78.4 23.3L78.1 23.4L77.8 23.2L77.6 23L77.5 22.8L77.3 22.8L77.3 22.5L77.4 22.2L77.5 22L77.7 21.7L77.6 21.4L77.5 21.2L77.3 20.9L77.4 20.7L77.5 20.5L77.4 20.3L77.2 20.1L77 19.9L77.2 19.8L77.3 19.5L77.5 19.5L77.7 19.4L77.9 19.4L77.9 19.6L78.1 19.6L78.1 19.9L78.1 20.1L78.4 20L78.6 20L78.9 19.9L79.1 20.2L79.1 20.4L79.3 20.7L79.3 20.9ZM79.8 21.1L79.6 21L79.2 21L79.3 20.7L79.1 20.4L79.1 20.2L78.9 19.9L78.7 19.9L78.4 20L78.1 20.1L78.1 19.9L78.1 19.6L77.9 19.6L77.9 19.4L77.9 19.2L78.1 19L78.3 19.1L78.2 18.8L78.4 18.8L78.5 19L78.7 19.2L79 19.2L79.1 19.5L78.9 19.5L79.2 19.8L79.4 20.1L79.6 20.4L79.8 20.6L79.9 20.8L79.8 21.1ZM77.8 19.3L77.5 19.5L77.3 19.5L77.2 19.8L77 19.9L77.2 20.1L77.4 20.3L77.5 20.5L77.4 20.7L77.3 20.9L77.5 21.2L77.6 21.4L77.7 21.7L77.5 22L77.4 22.2L77.3 22L77.4 21.8L77.4 21.4L77.3 21.2L77.2 20.9L77.1 20.5L77 20.3L76.8 20.4L76.5 20.6L76.3 20.6L76.3 20.2L76.2 19.9L76 19.6L75.7 19.3L75.6 19L75.9 18.8L75.9 18.6L75.9 18.3L76.1 18.4L76.3 18.1L76.4 17.8L76.4 17.6L76.8 17.4L77 17.5L77 17.3L77 17.1L77.2 17.1L77.3 17.3L77.4 17.6L77.4 17.8L77.1 18L77.1 18.4L77.4 18.3L77.5 18.6L77.6 18.9L77.8 19L78.1 18.9L77.9 19.2ZM79 22.1L79.2 22L79.5 22L79.4 21.8L79.9 21.6L79.9 21.2L79.9 20.8L79.8 20.6L79.6 20.4L79.4 20.1L79.2 19.8L78.9 19.6L79.1 19.5L79 19.2L78.7 19.2L78.5 19L78.4 18.8L78.8 18.7L79 18.7L79.3 18.5L79.6 18.7L79.7 18.9L80 19L79.6 19.3L79.4 19.5L79.4 19.7L79.6 20L79.8 20.4L80.1 20.5L80.2 20.8L80.4 21.3L80.3 21.8L80.1 21.9L79.8 22.1L79.6 22.4L79.2 22.6L79.1 22.4L79.2 22.2L79 22.1ZM86.3 13.2L86.1 13.3L86 13.6L85.8 13.8L85.5 13.9L85.4 14.1L85.7 14.3L85.5 14.4L85.3 14.4L85.1 14.5L84.9 14.5L84.7 14.5L84.7 14.3L84.8 14.1L84.6 14L84.7 13.7L85.1 13.6L85.2 13.4L85.4 13.5L85.6 13.5L85.6 13.3L86 13.2L86.3 13.2ZM85 14.5L85.2 14.5L85.5 14.4L85.7 14.3L85.9 14.6L86 14.8L86 15.1L85.9 15.3L85.6 15.3L85.4 15.4L85.1 15.4L85.2 15.1L85 14.8L85.2 14.8L85 14.5ZM74.4 11.3L74.7 11.3L75.2 11L75.6 10.9L75.9 11L76.2 11L76.6 11.1L77 11.2L77.3 11L77.2 10.8L77.5 10.5L77.8 10.7L78 10.7L78.4 10.8L78.4 11L78.8 11.1L79.1 11L79.4 11L79.7 11L80 11.2L80.4 11.3L80.7 11.4L81 11.3L81.4 11.2L81.8 11L82.1 11.2L82.4 11.1L82.3 11.4L82.1 11.6L82.3 11.7L82.6 11.8L82.8 11.6L83 11.7L83.3 11.9L83 12L82.6 12L82.4 12.1L82.2 12.3L81.8 12.4L81.5 12.6L81.2 12.5L80.9 12.7L81.1 12.8L80.9 12.9L80.7 13.1L80.3 13.2L79.9 13.2L79.5 13.3L79.2 13.4L79 13.4L78.7 13.4L78.3 13.2L78 13.1L77.6 13.2L77.1 13.1L76.8 13.1L76.6 13L76.5 12.7L76.3 12.7L76 12.5L75.6 12.5L75.3 12.4L75.3 12L75.1 11.8L74.7 11.6L74.4 11.5L74.4 11.3ZM77 17.1L77.1 17.3L77 17.5L76.8 17.4L76.4 17.6L76.4 17.8L76.3 18L76.1 18.4L75.9 18.3L75.9 18.6L75.9 18.8L75.7 18.9L75.6 18.4L75.5 18.6L75.3 18.5L75.4 18.3L75.7 18.1L75.5 18L75.2 18L75 18L75 17.8L74.8 17.8L74.6 17.7L74.7 18L74.5 18.1L74.6 18.3L74.7 18.6L74.7 18.9L74.5 19L74.2 19L74.2 19.2L74 19.4L73.6 19.6L73.3 19.9L73.1 20.1L72.8 20.3L72.7 20.5L72.4 20.6L72.2 20.8L72.3 21.2L72.3 21.4L72.2 21.7L72.2 22.1L72 22.1L71.9 22.3L71.7 22.5L71.7 22.7L71.5 22.8L71.3 22.5L71.1 22.1L71 21.9L70.9 21.7L70.8 21.5L70.7 21.1L70.7 20.9L70.4 20.6L70.3 20L70.2 19.7L70.2 19.3L70.2 19.1L69.8 19.2L69.6 19.2L69.2 18.9L69.3 18.7L68.9 18.4L69.1 18.2L69.7 18.2L69.7 18L69.5 17.9L69.5 17.6L69.3 17.5L69.6 17.2L69.9 17.2L70.2 17L70.4 16.7L70.7 16.4L70.7 16.2L70.9 16L70.7 15.9L70.6 15.7L70.5 15.5L70.6 15.3L71 15.4L71.4 15.4L71.6 15.1L71.9 15.5L71.9 15.7L72 16L71.8 15.9L71.9 16.2L72.1 16.4L72.5 16.6L72.2 17L72.5 17.1L72.8 17.2L73.1 17.4L73.5 17.4L73.7 17.6L73.9 17.6L74.2 17.7L74.5 17.7L74.5 17.4L74.6 17.2L74.7 17.4L74.9 17.6L75.1 17.5L75.3 17.6L75.6 17.5L75.5 17.3L75.7 17.3L75.9 17L76.3 16.9L76.5 16.9L76.7 16.8L76.8 17L77 17.1ZM75.7 18.9L75.7 19.1L75.7 19.3L75.6 19.1L75.5 18.8L75.1 18.7L75.1 18.9L74.9 18.9L74.7 18.9L74.7 18.6L74.6 18.4L74.5 18.2L74.7 18L74.5 17.8L74.8 17.8L75 17.8L75 18L75.2 18L75.5 18L75.7 18.1L75.5 18.3L75.3 18.5L75.5 18.6L75.5 18.4L75.7 18.9ZM75.5 17.3L75.6 17.5L75.3 17.6L75.1 17.5L74.9 17.6L74.7 17.5L74.9 17.2L75.2 17.2L75.5 17.3ZM74.5 17.3L74.5 17.6L74.2 17.7L73.9 17.6L73.7 17.6L73.5 17.4L73.1 17.4L72.8 17.2L72.5 17.1L72.2 17L72.4 16.7L72.6 16.5L72.9 16.6L73.1 16.8L73.3 16.9L73.6 17L73.8 17.2L74.2 17.2L74.5 17.3ZM71.6 15.1L71.4 15.4L71 15.4L70.6 15.3L70.5 15.5L70.6 15.7L70.7 15.9L70.9 16L70.7 16.2L70.7 16.4L70.4 16.7L70.2 17L69.9 17.2L69.6 17.2L69.3 17.5L69.5 17.6L69.5 17.9L69.7 18L69.7 18.2L69.1 18.2L68.9 18.4L68.7 18.3L68.7 18.1L68.4 17.9L67.9 18L67.5 18L67.1 18L67.2 17.7L67.6 17.6L67.6 17.4L67.4 17.4L67.4 17.2L67.2 17L67 16.9L66.9 16.7L67.4 16.9L67.7 16.8L67.9 16.8L68.1 16.8L68.4 16.7L68.4 16.5L68.6 16.3L68.8 16.3L69 16.2L69.3 16.1L69.4 15.8L69.4 15.5L69.7 15.6L69.8 15.4L69.9 15.2L69.8 15L70 14.9L70.3 14.8L70.6 14.8L70.9 14.7L71.1 14.8L71.2 15L71.6 15.1ZM68.5 14.6L68.8 14.7L69.1 14.6L69.3 14.6L69.5 14.6L69.5 14.4L69.7 14.3L69.8 14.5L69.8 14.7L70 14.8L70.2 14.7L70.4 14.6L70.8 14.6L70.6 14.8L70.3 14.8L70 14.9L69.8 15L69.9 15.2L69.8 15.4L69.7 15.6L69.4 15.5L69.5 15.7L69.2 16L69.1 16.2L68.8 16.2L68.6 16.3L68.4 16.5L68.4 16.7L68.1 16.8L67.9 16.8L67.7 16.8L67.4 16.9L66.9 16.7L67.2 16.5L67.1 16.3L66.9 16.2L66.8 15.8L66.8 15.6L66.9 15.4L67 15.1L67.3 15.2L67.5 15.2L67.6 15L67.8 15L68 14.7L68.2 14.6L68.4 14.6ZM68.8 14.7L69 14.4L68.9 14.2L68.7 14.1L69 14L69.2 13.9L69.3 13.7L69.6 13.6L69.6 13.8L69.3 13.9L69.6 14L69.9 14.1L70.5 14L70.5 14.3L70.8 14.3L70.8 14.6L70.5 14.6L70.2 14.7L70 14.8L69.8 14.7L69.9 14.5L69.7 14.3L69.5 14.4L69.5 14.6L69.3 14.6L69.1 14.6L68.9 14.7ZM69.7 13.3L69.8 13.1L70 13.1L70.4 13.2L70.5 13L71 13.1L71.6 13.1L72 13.1L72.3 13.2L71.8 13.4L71.7 13.6L71.4 13.6L71.3 13.8L71 13.7L70.8 13.8L70.5 13.9L69.9 14.1L69.6 14L69.3 14L69.6 13.9L69.9 13.8L70.3 13.6L70 13.5L69.8 13.6L69.6 13.5L69.8 13.3ZM64.6 13.4L65 13.2L65.2 13.3L65.4 13.5L65.9 13.5L66.1 13.3L66.3 13.1L66.7 13.3L66.7 13.5L67.1 13.5L67.3 13.9L67.6 14.1L67.8 14.2L68.1 14.3L68.5 14.5L68.3 14.5L68 14.7L67.9 14.9L67.6 15L67.5 15.2L67.3 15.2L67 15.1L67 14.9L66.8 14.9L66.5 14.6L66.2 14.6L65.9 14.4L65.7 14.4L65.4 14.5L65.2 14.6L65 14.7L64.9 14.5L65 14.2L64.8 14.1L64.8 13.9L64.6 13.9L64.7 13.6L65 13.7L65.2 13.6L65 13.5L64.9 13.3L64.7 13.4L64.7 13.6L64.6 13.4ZM63.5 16.7L63.3 16.5L63.3 16.2L63.1 16L62.8 15.8L62.6 15.6L62.7 15.3L62.8 15.1L62.6 15L62.4 14.7L62.3 14.5L62.3 14L62.5 14.1L62.8 14.2L63.2 14L63.4 14L63.3 14.2L63.5 14.4L63.7 14.6L63.9 14.6L64.1 14.8L64.5 14.8L65 14.7L65.2 14.6L65.4 14.5L65.6 14.5L65.9 14.4L66.2 14.6L66.5 14.6L66.8 14.9L67 14.9L67 15.1L66.9 15.4L66.8 15.6L66.8 15.8L66.9 16.1L67.1 16.3L67.2 16.5L66.9 16.7L67 16.9L67.2 17L67.4 17.2L67.4 17.4L67.6 17.4L67.6 17.6L67.2 17.7L67.1 18L66.6 17.9L66.3 17.9L65.9 17.9L65.8 17.5L65.5 17.5L65.2 17.6L64.9 17.6L64.6 17.3L64.3 17.3L64.1 17L63.9 16.6L63.6 16.6ZM59.9 15.9L60 15.6L60.2 15.5L60 15.4L60 15.2L60 15L60.2 14.9L60.6 14.7L61 14.8L61.3 14.7L61.8 14.7L61.6 14.8L61.5 15.1L61.4 15.4L60.8 15.7L60.2 16L59.9 15.9ZM62.9 14.2L62.7 14.1L62.5 14L62.3 13.9L62.1 13.8L62.1 13.6L62.5 13.5L62.7 13.7L62.7 13.9L62.9 14L62.9 14.2ZM53.1 8.7L53.2 8.5L53.4 8.3L53.5 8L53.3 7.8L53.3 7.5L53.5 7.2L53.8 7.2L53.8 7L54.2 6.6L54.5 6.3L54.7 6.1L54.9 6.1L55.5 6L55.6 5.8L56.1 5.9L56.5 6.1L56.5 6.6L56.2 6.7L55.9 6.9L55.9 7.1L55.5 7.3L55 7.6L54.8 8L55 8.2L55.2 8.3L55 8.6L54.7 8.7L54.6 9.2L54.4 9.4L54.1 9.4L53.9 9.6L53.6 9.6L53.5 9.4L53.3 9L53.1 8.7ZM57.8 9.4L58.1 9.5L58.3 9.5L58.6 9.6L58.5 9.8L58.7 10L59 10.1L58.7 10.2L58.8 10.5L58.6 10.5L58.5 10.7L58.1 10.7L57.9 10.7L57.6 10.7L57.3 10.6L57 10.6L56.8 10.6L56.5 10.7L56.5 10.5L56.6 10.3L56.5 10.1L56.8 10L57.1 9.9L57.4 9.7L57.5 9.5L57.8 9.4ZM58.8 10.5L59 10.5L59.4 10.5L59.6 10.6L59.5 10.8L59.7 10.8L59.8 11L60.2 11L60.4 11L60.6 11.1L61.1 11.2L61 11.4L61.1 11.6L60.8 11.7L60.6 11.8L60.4 11.9L60.2 12L60 12L59.7 12.1L59.7 12.3L59.4 12.2L59.2 12.2L58.8 12.1L58.5 12.1L58.2 12.4L58 12.4L57.8 12.4L58 12.2L58.3 12.1L58.2 11.8L58 11.6L57.8 11.6L57.6 11.5L57.4 11.6L57.2 11.7L57 11.7L56.8 11.7L56.6 11.7L56.4 11.6L56.1 11.5L56.3 11.4L56.5 11L56.7 10.9L56.5 10.7L56.7 10.7L57 10.6L57.3 10.6L57.6 10.7L57.8 10.7L58.1 10.7L58.4 10.7L58.6 10.5L58.8 10.5ZM56.5 10L56.6 10.3L56.4 10.4L56.5 10.7L56.7 10.9L56.5 11L56.3 11.3L56 11.3L55.8 11.3L55.5 11.3L55.3 11.3L55.1 11.1L54.9 11.1L54.7 11L54.5 11L54.3 10.9L54.1 10.6L54 10.4L54 10.2L54.1 10L54.5 9.9L54.9 9.8L55.2 9.8L55.5 9.9L55.8 9.9L56.3 9.9L56.5 9.9ZM54.7 11.6L54.5 11.7L54.5 12L54.2 12L53.8 12.1L53.4 12L53.1 12L52.9 12L52.6 11.9L52.9 11.9L53.2 11.8L53.4 11.7L53.6 11.8L53.6 11.6L53.8 11.4L54 11.5L54.2 11.4L54.5 11.5L54.7 11.5ZM56.1 11.5L56.3 11.6L56.1 11.8L55.8 12.1L55.6 12.2L55.4 12.2L55.2 12.2L54.9 12.2L54.7 12.1L54.5 12L54.6 11.8L54.7 11.6L54.9 11.7L55.2 11.7L55.5 11.6L55.7 11.5L56.1 11.6ZM57.4 11.6L57.6 11.5L57.8 11.6L58 11.6L58.1 11.8L58.2 12L58 12.1L57.9 12.3L57.8 12.1L57.7 11.8L57.5 11.6ZM57.8 12.4L58 12.4L58.2 12.4L58 12.5L57.9 12.9L57.6 12.7L57.2 12.8L56.7 12.8L56.5 12.8L56.3 12.7L56 12.6L56 12.4L55.8 12.4L55.6 12.2L55.8 12.1L56 11.9L56.3 11.7L56.6 11.7L56.8 11.7L57 11.7L57.2 11.7L57.4 11.6L57.6 11.7L57.8 12L57.8 12.2L57.8 12.4ZM57.4 9.6L57.2 9.8L56.8 10L56.5 10L56.3 9.9L56.2 9.7L55.9 9.7L55.8 9.4L56.2 9.4L56.6 9.4L56.9 9.3L57.1 9.4L57.4 9.6ZM57.6 9L57.7 9.2L57.8 9.4L57.5 9.5L57.1 9.4L56.9 9.4L56.6 9.4L56.2 9.4L55.8 9.4L55.9 9.2L56.3 9L56.5 9.2L56.7 9.2L56.8 8.9L57 8.9L57.4 9L57.6 9ZM57.8 8.5L57.6 8.7L57.7 8.9L57.4 9L57.1 8.9L56.8 8.9L56.5 8.7L56.8 8.5L57.2 8.4L57.5 8.5L57.8 8.5ZM53.9 10.1L53.9 10.3L54.1 10.5L54.2 10.8L54 10.8L53.7 10.9L53.4 11L53.5 11.2L53.8 11.4L53.7 11.6L53.6 11.8L53.4 11.7L53.2 11.8L52.9 11.8L52.7 11.8L52.4 11.7L52.1 11.8L52.1 11.6L52.2 11.4L51.8 11.3L51.7 11.1L51.7 10.9L51.7 10.6L51.9 10.5L52 10.2L52.2 10.1L52.4 10L52.4 9.7L52.6 9.8L52.8 9.7L53 9.9L53.3 9.9L53.5 9.9L53.8 10ZM56.3 12.7L56.5 12.8L56.7 12.8L57.1 12.9L57.6 12.7L57.8 12.8L57.8 13L57.7 13.2L57.5 13.3L57.3 13.4L57 13.5L56.8 13.4L56.6 13.5L56.4 13.5L56.4 13.3L56.2 13.2L56.4 13L56.2 12.8ZM56.4 13.5L56.6 13.5L56.8 13.4L57 13.5L57.3 13.5L57.2 13.7L56.9 13.6L56.6 13.7L56.8 13.9L56.6 13.9L56.3 13.8L56.3 14L56.5 14.1L56.5 14.3L56.7 14.4L56.4 14.5L56.4 14.9L56.2 14.9L56 14.8L55.9 14.5L55.8 14.2L55.6 14.1L55.7 13.9L55.8 13.7L56 13.6L56.3 13.6ZM62.4 14.7L62.2 14.7L61.9 14.6L61.4 14.7L61 14.8L60.7 14.8L60.3 14.8L60.1 15L59.9 14.9L59.6 14.8L59 15L58.8 14.8L58.5 14.8L58.2 15L58 14.8L57.7 14.8L57.5 14.5L57.3 14.4L57.4 14.2L57.3 14L57.6 13.8L58 13.8L58.1 13.6L58.7 13.6L59 13.4L59.3 13.3L59.8 13.3L60.3 13.5L60.7 13.6L61 13.6L61.2 13.6L61.5 13.5L61.8 13.4L62.1 13.6L62.1 13.8L62.3 13.9L62.3 14.4L62.4 14.7ZM57.3 13.4L57.5 13.3L57.8 13.3L58.1 13.5L57.7 13.6L57.3 13.8L57.3 13.6L57.3 13.4ZM55.8 13.7L55.7 13.9L55.5 13.9L55.4 13.7L55.4 13.5L55.4 13.3L55.5 13.1L55.7 13.3L55.7 13.5L55.8 13.7ZM54.6 12.1L54.9 12.2L55.1 12.3L55.3 12.4L55 12.5L54.7 12.4L54.5 12.5L54.5 12.7L54.7 12.9L54.9 13L55.2 13.2L54.9 13.1L54.7 13L54.4 12.9L54.2 12.7L54.1 12.5L53.9 12.6L53.8 12.4L54 12.4L54.3 12.4L54.4 12.2L54.6 12.1ZM52.7 11.8L52.8 12L52.6 12.1L52.4 12.2L52.2 12.3L52 12.3L51.8 12.1L51.9 11.9L52.1 11.8L52.3 11.8L52.7 11.8ZM51.7 10.9L51.7 11.1L51.3 11.1L51 11L50.7 10.9L50.9 10.7L51.1 10.8L51.4 10.7L51.6 10.8ZM51.9 10.1L51.9 10.5L51.7 10.6L51.7 10.9L51.4 10.7L51.1 10.8L50.9 10.7L51.1 10.7L51.3 10.3L51.7 10.1L51.9 10.1ZM47.5 13.4L47.7 13.3L47.9 13.4L48.1 13.4L48.1 13.6L48.1 13.8L48 14L48 14.2L48 14.4L47.9 14.6L47.8 14.8L47.5 14.8L47.6 14.5L47.4 14.3L47.4 14.1L47.5 13.8L47.6 13.6L47.5 13.4ZM47.9 14.7L48 14.5L48 14.3L47.9 14L48 13.8L48.1 13.6L48.1 13.4L47.9 13.4L47.7 13.3L47.5 13.4L47.5 13.2L47.4 13L47.8 12.8L48.1 12.9L48.5 12.9L48.8 12.9L49 12.9L49.5 12.9L50.1 13.2L50.5 13.2L50.8 13.2L50.8 13.4L50.6 13.5L50.2 13.6L50 13.9L49.9 14.1L49.9 14.4L49.6 14.6L49.4 14.8L49.1 14.8L48.8 14.8L48.6 14.9L48.4 15L48.2 14.7L47.9 14.7ZM48.3 10L48.3 10.2L48.1 10.5L47.6 10.6L47.2 10.6L47.5 10.3L47.3 10L47.7 9.8L47.9 9.7L47.9 10L48.1 10L48.3 10ZM96 30.9L96.3 31L96.4 31.2L96.2 31.1L96 31L95.8 30.9L95.6 30.7L95.8 30.7L96 30.8ZM99.1 36.1L99 36.3L98.9 36.5L98.7 36.6L98.5 36.5L98.7 36.2L98.3 36L98.5 35.8L98.5 35.6L98.5 35.4L98.4 35.2L98.3 35L98.1 34.8L98 34.6L98.2 34.7L98.4 34.8L98.5 35L98.7 35.3L98.7 35.1L98.9 35.4L99.1 35.5L99.3 35.5L99.6 35.5L99.5 35.7L99.4 35.9L99.2 35.9L99.2 36.1ZM97.1 37.1L97.4 37L97.5 36.8L97.7 36.6L97.8 36.4L98 36.2L98.1 36.4L98.3 36.4L98.4 36.6L98.1 36.9L98.1 37.2L97.9 37.2L97.6 37.3L97.6 37.5L97.4 37.8L97.2 37.9L97 38L96.8 37.9L96.6 37.9L96.3 37.8L96.4 37.5L96.8 37.3L97.1 37.1ZM91 36.3L91.2 36.4L91.2 36.7L91.1 37L90.8 37.1L90.6 37.1L90.4 36.9L90.4 36.7L90.2 36.4L90.4 36.3L90.7 36.4L91 36.3ZM85 33.9L84.7 34.1L84.5 34.2L84.3 34.4L84.1 34.4L83.9 34.4L83.7 34.4L83.5 34.4L83.3 34.4L83.1 34.6L82.9 34.7L82.6 34.7L82.4 34.7L82.1 34.6L82 34.3L82.1 34.1L82.2 33.9L82 33.5L81.9 33.3L81.8 33L81.7 32.8L81.7 32.6L81.5 32.4L81.5 32.1L81.7 32.3L81.6 31.9L81.5 31.6L81.6 31.4L81.6 31.2L81.7 31L81.7 31.3L81.8 31.1L82.1 31L82.4 30.8L82.6 30.8L82.8 30.7L83 30.6L83.3 30.5L83.6 30.5L83.7 30.3L84 30.1L84 29.9L84.2 29.6L84.3 29.8L84.3 29.6L84.5 29.5L84.5 29.3L84.7 29.2L84.9 29L85.2 28.9L85.5 29L85.7 29.1L86 29.2L85.9 29L86.1 28.8L86.2 28.6L86.5 28.4L86.8 28.4L86.8 28.2L86.6 28.1L86.8 28.1L87.1 28.3L87.3 28.3L87.6 28.4L87.8 28.3L88 28.4L88 28.6L87.8 28.7L87.7 29L87.6 29.2L87.9 29.3L88.1 29.4L88.4 29.7L88.6 29.7L88.9 29.9L89.1 29.8L89.2 29.6L89.3 29.4L89.4 29.2L89.3 29L89.3 28.8L89.3 28.6L89.4 28.4L89.5 28.1L89.7 28.1L89.7 28.3L89.9 28.6L89.9 28.8L90 29L90.2 28.9L90.2 29.1L90.4 29.2L90.4 29.5L90.5 29.7L90.6 29.9L90.6 30.1L90.7 30.3L91 30.4L91.2 30.5L91.3 30.7L91.5 30.9L91.6 31.2L91.8 31.3L91.9 31.5L92.1 31.7L92.5 32L92.5 32.2L92.5 32.4L92.5 32.6L92.7 32.8L92.6 33.1L92.5 33.4L92.5 33.6L92.5 33.8L92.3 34L92.1 34.2L92 34.4L91.9 34.8L91.7 35.1L91.7 35.3L91.5 35.5L91.2 35.5L90.9 35.6L90.6 35.8L90.4 35.7L90.2 35.7L90.3 35.5L90.1 35.6L89.9 35.8L89.7 35.7L89.5 35.7L89.3 35.6L89.1 35.6L88.9 35.4L88.8 35.2L88.8 35L88.6 34.9L88.4 34.9L88.4 34.6L88 34.8L88.2 34.6L88.3 34.3L88.3 34.1L88.1 34.4L87.9 34.5L87.8 34.7L87.6 34.6L87.6 34.4L87.4 34.2L87.2 34.1L86.9 33.9L86.7 33.9L86.5 33.7L86 33.8L85.6 33.9L85.3 34L85 33.9ZM72.7 22.9L72.7 23.2L72.3 23.3L72.2 23.1L72.1 22.7L72.3 22.3L72.5 22.4L72.6 22.6L72.7 22.9ZM80.4 19.9L80.2 19.9L80.2 19.6L80.6 19.4L80.8 19.4L80.7 19.7L80.4 19.9ZM72.3 13.2L72.5 13L72.2 12.5L72.8 12.4L73.1 11.9L73.7 11.9L73.8 11.5L74.1 11.5L74.3 11.3L74.4 11.5L74.7 11.6L75.1 11.8L75.3 12L75.2 12.3L75.6 12.5L76 12.5L76.3 12.7L76.5 12.7L76.6 13L76.8 13.1L77.1 13.1L77.6 13.2L78 13.1L78.3 13.2L78.7 13.4L79 13.4L79.2 13.4L79.5 13.3L79.9 13.2L80.3 13.2L80.7 13.1L80.9 12.9L81.1 12.8L80.9 12.7L81.1 12.5L81.5 12.6L81.8 12.4L82.2 12.3L82.4 12.1L82.6 12L83 12L83.2 12L83 11.7L82.8 11.6L82.6 11.8L82.3 11.7L82.1 11.6L82.3 11.4L82.4 11.1L82.7 11.2L83.1 11.1L83.1 10.9L83.4 10.7L83.5 10.4L83.6 10.2L84 10.2L84.3 10.2L84.7 10.2L85 10.3L85.2 10.6L85.4 10.9L85.5 11.2L85.9 11.3L86.3 11.5L86.4 11.7L86.8 11.7L87 11.6L87.5 11.5L87.4 11.8L87.2 12.2L87 12.5L86.6 12.4L86.4 12.5L86.5 12.7L86.4 13.1L86.1 13.1L85.6 13.3L85.6 13.5L85.4 13.5L85.2 13.4L85.1 13.6L84.7 13.7L84.5 13.9L84.1 14L83.9 14.1L83.6 14.2L83.8 14.1L83.9 13.8L83.8 13.6L83.5 13.7L83.2 13.9L83.1 14.1L82.8 14.1L82.6 14.2L82.8 14.4L83 14.5L83.3 14.7L83.6 14.5L83.8 14.6L84 14.6L83.6 14.8L83.5 15L83.2 15.1L83.1 15.3L83.4 15.5L83.5 15.7L83.7 16L83.9 16.2L83.9 16.4L83.7 16.5L83.9 16.7L83.9 16.9L83.8 17.2L83.6 17.2L83.4 17.5L83.2 17.8L83 18.2L82.6 18.4L82.2 18.7L81.9 18.7L81.7 18.8L81.5 18.9L81.1 19L80.8 19.1L80.7 19.3L80.5 19.4L80.5 19.2L80.1 19L79.7 18.9L79.6 18.7L79.4 18.6L79 18.7L78.8 18.7L78.5 18.7L78.2 18.8L78.3 19.1L78.1 19.1L78.1 18.9L77.9 19L77.6 18.9L77.6 18.6L77.4 18.3L77.1 18.4L77.1 18L77.4 17.8L77.4 17.6L77.4 17.4L77.2 17.1L77 17.1L76.7 17.1L76.7 16.8L76.5 16.9L76.3 16.9L75.9 17L75.7 17.3L75.5 17.3L75.3 17.2L75 17.1L74.7 17.4L74.6 17.2L74.2 17.2L73.8 17.2L73.6 17L73.4 17L73.1 16.8L72.9 16.6L72.6 16.5L72.1 16.4L71.9 16.2L71.8 15.9L72 16L72 15.8L71.9 15.5L71.6 15.1L71.2 15L71.1 14.8L70.9 14.7L70.8 14.4L70.6 14.3L70.5 14L70.8 13.8L71 13.7L71.3 13.8L71.4 13.6L71.7 13.6L71.8 13.4L72.3 13.3ZM83.8 18.2L83.7 18.7L83.5 18.9L83.4 18.7L83.4 18.5L83.5 18.2L83.7 18L83.9 18.1ZM52.9 12L53.1 12L53.4 11.9L53.8 12.1L53.9 12.3L53.7 12.3L53.4 12.4L53.4 12.6L53.5 12.8L53.8 12.9L53.9 13.1L54.2 13.3L54.4 13.3L54.4 13.5L54.7 13.6L54.9 13.6L55.1 13.8L54.9 13.8L54.7 13.8L54.8 14L54.7 14.2L54.5 14.4L54.4 14.2L54.4 14L54.2 13.8L53.9 13.7L53.6 13.5L53.4 13.4L53.1 13.2L52.9 13.1L52.8 12.8L52.5 12.7L52.3 12.7L52.1 12.9L52.1 12.7L51.9 12.7L51.9 12.5L51.9 12.3L52.2 12.3L52.4 12.2L52.6 12.1L52.8 12.1ZM54.1 14.4L54.3 14.4L54.2 14.6L54.2 14.8L54 14.7L53.8 14.7L53.5 14.6L53.5 14.4L53.8 14.4L54.1 14.4ZM52.4 13.6L52.6 13.6L52.7 14.1L52.4 14.2L52.3 13.8L52.3 13.6ZM52.8 9.7L52.6 9.8L52.4 9.7L52.2 9.3L52.4 9.1L52.6 9.1L52.9 9L52.8 9.2L53 9.3L52.7 9.6ZM48.3 10L48.1 10L47.9 10L48 9.8L48.4 9.8L48.3 10ZM49.1 10.2L49.2 10L49 9.8L48.7 9.8L48.7 9.6L48.4 9.6L48.4 9.4L48.3 9.2L48.4 8.9L48.6 8.7L48.8 8.7L49.2 8.7L48.9 9L49.2 9L49.5 9L49.4 9.2L49.1 9.5L49.4 9.5L49.7 9.8L49.9 9.9L50.1 10.2L50.5 10.4L50.3 10.6L50.4 10.8L50.2 10.9L49.8 10.9L49.3 11L49 11L48.7 11L48.5 11.1L48.8 10.8L49.1 10.7L48.6 10.7L48.8 10.5L48.7 10.3L48.7 10.1L49.1 10.2ZM46 6.5L45.9 6.7L46.2 6.9L45.9 7.1L45.1 7.3L44.8 7.4L44.5 7.3L43.7 7.2L44 7.1L43.3 7L43.8 6.9L43.2 6.8L43.4 6.6L43.9 6.6L44.3 6.7L44.7 6.6L45.1 6.7L45.5 6.5L46 6.5ZM62.9 13.4L63.2 13.6L63.5 13.4L63.8 13.7L64 13.8L63.8 13.8L63.7 14.1L63.6 14.4L63.3 14.2L63.4 14L63.2 14L62.9 14.2L62.9 14L62.7 13.9L62.6 13.7L62.5 13.5L62.8 13.6L63 13.6L62.8 13.4ZM61.1 12.9L61.4 12.9L61.8 13L62.2 13.1L62.4 13.1L62.6 13.2L62.9 13.4L63 13.6L62.8 13.6L62.6 13.5L62.1 13.6L61.8 13.4L61.5 13.5L61.6 13.3L61.4 13.1L61.2 13ZM84.1 22.2L84.2 22L84.5 21.9L84.4 22.1L84.3 22.4L84 22.3ZM85.1 22.7L85.1 23L85.1 23.3L85 23L84.8 23.1L84.9 23.3L84.5 23.3L84.4 23.1L84.3 22.8L84.1 22.9L83.9 23.1L84 22.8L84.2 22.7L84.4 22.7L84.6 22.6L84.9 22.5L84.8 22.3L85.1 22.4L85.1 22.6ZM84 19.9L83.9 20.1L84 20.3L84 20.5L83.8 20.6L83.8 20.8L83.8 21L84 21.1L84.4 21.2L84.5 21.4L84.2 21.4L84.1 21.2L83.9 21.2L83.6 21.2L83.5 21L83.4 20.8L83.3 20.5L83.4 20.1L83.5 19.9L83.7 19.9L83.9 19.9ZM84.9 21.6L84.9 21.9L84.7 21.9L84.8 22.1L84.6 22L84.5 21.8L84.7 21.8L84.5 21.5L84.8 21.5ZM77.8 23.2L78.1 23.3L78.3 23.4L78.6 23.5L78.7 23.7L78.7 24L78.8 24.2L79 24.5L78.8 24.7L78.5 24.5L78.2 24.2L78 23.9L77.9 23.7L77.8 23.5L77.9 23.3ZM82.7 23.9L82.5 23.8L82.2 23.8L82.1 24.1L81.8 24.6L81.6 24.7L81.3 24.6L81.1 24.7L80.9 24.7L80.7 24.8L80.5 24.6L80.5 24.4L80.7 24.5L80.9 24.5L80.9 24.3L81.1 24.2L81.4 24.1L81.6 23.9L81.7 23.7L81.8 23.9L82 23.8L82.1 23.6L82.3 23.3L82.4 23.1L82.7 23.2L82.9 23.4L83.1 23.5L82.9 23.6L82.9 23.8L82.7 23.9ZM53.8 12.1L54.1 12.1L54.4 12L54.6 12.1L54.4 12.2L54.3 12.4L54.1 12.4L53.8 12.4L53.8 12.2ZM57.9 5.8L57.9 6L58.3 6.2L58.1 6.4L58.4 6.7L58.2 7L58.5 7.2L58.3 7.3L58.8 7.5L58.6 7.7L58.4 7.8L57.8 8.2L57.3 8.2L56.8 8.3L56.4 8.4L56.2 8.2L55.9 8.1L56 7.9L55.8 7.6L56 7.4L56.2 7.3L56.9 7L57.1 6.9L56.6 6.7L56.5 6.1L56.1 5.9L55.7 5.8L55.9 5.7L56.2 5.9L56.6 5.9L56.9 5.9L57.1 5.8L57.3 5.6L57.7 5.5L58.1 5.6L57.9 5.8ZM56.3 11.4L56.1 11.5L55.8 11.5L55.6 11.6L55.3 11.6L55 11.7L54.7 11.6L54.8 11.4L55 11.4L55.2 11.3L55.4 11.2L55.7 11.3L56 11.3L56.3 11.4ZM54.2 10.8L54.5 10.9L54.6 11.1L54.9 11L55.1 11.1L55.2 11.3L55 11.3L54.8 11.4L54.6 11.4L54.2 11.4L54 11.5L53.8 11.4L53.6 11.3L53.4 11.1L53.6 11L53.9 10.9L54.2 10.8ZM60.1 21L60.2 20.5L60.2 20.3L60.5 20.2L60.7 20L60.8 20.3L60.9 20.6L61.1 20.7L61.4 21L61.6 21.1L61.7 21.3L62 21.5L61.8 21.5L61.6 21.3L61.4 21.2L61.1 21L60.9 21L60.7 21L60.5 20.8L60.4 21.1L60.1 21ZM89.4 14.1L89.2 14.4L89.2 14.7L89.1 14.9L89 15.2L88.6 15.4L88.1 15.4L87.7 15.7L87.5 15.6L87.5 15.4L87 15.5L86.7 15.6L86.4 15.6L86.7 15.8L86.5 16.3L86.3 16.4L86.2 16L85.9 15.8L86.2 15.7L86.4 15.5L86.6 15.3L86.8 15.2L87.4 15.1L87.7 15.1L88 14.6L88.2 14.8L88.6 14.5L88.9 14L88.9 13.7L89.3 13.5L89.4 13.9L89.4 14.1ZM90.2 12.8L90.4 12.7L90.4 13L90 13.1L89.8 13.3L89.3 13.1L89.2 13.4L88.9 13.5L88.8 13.2L89 13L89.3 12.9L89.4 12.6L89.4 12.3L89.8 12.6L90 12.7L90.2 12.8ZM86.8 15.7L86.9 15.5L87.1 15.6L87.4 15.5L87.3 15.8L87 15.8L86.8 15.8ZM33.8 30.6L33.9 30.8L33.9 31.1L34.2 31.2L34.5 31.2L34.6 31.5L34.6 31.7L34.8 31.6L34.9 31.8L34.9 32L34.8 32.4L34.5 32.6L34.3 32.7L34 32.6L33.7 32.5L34 32.1L33.7 31.9L33.3 31.7L33.1 31.6L32.6 31.2L32.7 30.8L32.8 30.5L33.3 30.4L33.6 30.4L33.8 30.5ZM64.4 19.7L64.7 20.2L64.8 20.4L64.6 20.4L64.5 20.6L64.2 20.8L63.8 20.9L63.5 21.1L63.3 21.1L63 21.3L62.7 21.3L62.5 21.4L62.3 21.5L62.1 21.5L62 21.3L62 21.1L61.9 20.9L61.9 20.6L62 20.4L62.1 20.1L62.6 20.2L62.9 20.2L63.1 20.3L63.4 20L63.6 19.8L64.4 19.7ZM59.7 16.8L60 16.9L60.2 16.7L60.4 16.7L60.6 16.5L60.3 16.2L60.8 16.1L61.2 16.1L61.6 16.3L62.4 16.9L62.9 16.9L63.2 16.9L63.3 17.1L63.6 17.3L63.7 17.5L63.9 17.6L63.9 17.8L64 18L64.2 18.2L64.4 18.6L65.3 18.8L65.5 18.9L65.3 19.4L64.4 19.7L63.6 19.8L63.4 20L63.2 20.2L63 20.2L62.6 20.2L62.2 20.2L62 20.3L61.9 20.5L61.8 20.3L61.7 20.1L61.5 19.8L61.4 19.6L61.2 19.4L60.9 19.1L60.8 18.9L60.9 18.7L60.7 18.4L60.4 18.3L60.3 18.1L60.3 17.9L60.1 17.6L59.9 17.4L59.8 17.2L59.6 17.2L59.7 17L59.7 16.8ZM49.4 15.2L49.5 15.4L49.5 15.6L49.6 15.9L49.3 16.1L49.1 16.2L49 16.4L48.7 16.5L48.5 16.7L48.3 16.7L48 16.8L47.6 17L47.6 17.3L47.6 17.5L47.4 17.5L47.2 17.5L46.8 17.5L46.7 17.7L46.5 18.1L46.1 18.4L46 18.8L45.9 19L45.3 19L45.4 18.8L45.5 18.6L45.6 18.4L45.7 18.2L45.9 18L46 17.7L46.2 17.6L46.4 17.3L46.8 17.2L47 17L47.3 16.7L47.3 16.3L47.4 16.1L47.6 15.8L47.9 15.6L48.1 15.5L48.3 15.2L48.6 15.1L49 15.2L49.3 15.2ZM60.2 18.9L59.1 18.9L58.1 18.9L56.9 18.9L56.9 17.9L56.9 16.9L56.9 16.7L56.9 16.5L57 16.2L57.4 16.2L57.6 16.3L57.9 16.4L58.2 16.3L58.4 16.3L58.6 16.2L58.8 16.3L59.2 16.4L59.4 16.4L59.7 16.7L59.6 16.9L59.6 17.1L59.5 17.3L59.3 17.2L59 16.7L59.1 17L59.3 17.3L59.5 17.7L59.6 17.9L59.9 18.4L59.9 18.6L60.2 18.8ZM56.9 18.9L56.9 19.4L56.6 19.4L56.6 19.6L55.5 19L54.4 18.5L54.1 18.6L53.9 18.8L53.8 18.6L53.3 18.5L53.2 18.3L53 18.2L52.8 18.1L52.6 17.8L52.7 17.6L52.7 17.3L52.7 17L52.7 16.8L52.6 16.6L52.8 16.5L52.8 16.3L53 16.2L53.2 16L53.2 15.8L53.5 15.9L53.9 15.9L54.2 16L54.4 16.3L54.6 16.3L55 16.5L55.3 16.6L55.6 16.4L55.5 16.2L55.6 16L55.8 15.9L56 15.9L56.4 15.9L56.5 16.1L56.9 16.1L56.9 16.4L56.9 16.7L56.9 16.9L56.9 17.9L56.9 18.9ZM63.3 22.8L62.5 23.6L62.1 23.6L61.9 23.8L61.7 23.8L61.4 23.9L61.1 23.9L60.8 24L60.6 24L60.2 23.8L60 23.8L59.9 23.5L59.6 23.2L59.5 23L59.3 22.9L59.2 22.7L59.4 22.7L59.4 22.3L59.5 22L59.7 21.9L59.8 21.6L60 21.5L60.1 21.2L60.1 21L60.4 21.1L60.5 20.8L60.7 21L60.9 20.9L61.1 21L61.4 21.1L61.6 21.3L61.8 21.5L61.6 21.8L61.8 21.9L61.8 22.1L62 22.3L63 22.8L63.3 22.8ZM61.8 21.5L62 21.5L62 21.7L61.9 22L61.6 21.9L61.7 21.6ZM63.6 21.8L63.6 22.2L63.6 22.4L63.3 22.8L63 22.8L62.1 22.4L61.9 22.2L61.9 22L62 21.8L62.1 22L62.3 22.1L62.7 22L63 22L63.2 21.9L63.4 21.8L63.6 21.8ZM59.4 25.3L58.9 25.3L58.5 25.3L58.3 25.4L58.2 25.2L58.3 24.8L58.5 24.6L58.7 24.4L58.5 24.4L58.6 24L58.9 24L59.1 23.9L59.3 23.9L59.6 24L59.6 24.2L59.7 24.5L59.6 24.7L59.5 24.9L59.4 25.3ZM58.4 25.3L58.6 25.5L58.5 25.7L58.3 25.7L58.1 25.8L58.1 25.6L58.2 25.4L58.4 25.3ZM55.2 13.2L54.9 13L54.7 12.9L54.5 12.7L54.4 12.4L54.6 12.4L55 12.5L55.2 12.5L55.4 12.5L55.3 12.7L55.4 12.9L55.2 13L55.2 13.2ZM56.2 13.2L56.4 13.3L56.4 13.5L56.1 13.6L55.8 13.7L55.7 13.5L55.8 13.3L56 13.3L56.2 13.2ZM55.2 12.2L55.4 12.2L55.6 12.2L55.8 12.3L56 12.4L56 12.6L56.2 12.6L56.2 12.8L56.4 13L56.2 13.2L56 13.3L56 13.1L55.8 13L55.6 13.1L55.4 13L55.4 12.8L55.4 12.5L55.2 12.2ZM58.6 24L58.3 23.8L58.1 23.8L57.9 23.8L57.6 23.5L57.4 23.3L57.2 23.1L57 22.9L56.8 22.7L56.6 22.6L56.8 22.5L56.9 22.3L57 22.1L57.2 22.1L57.4 22.3L57.7 22.3L58 22.4L58.2 22.3L58.3 22.1L58.6 22.3L58.8 22.1L59 21.9L58.9 21.7L59.1 21.7L59.2 22L59.4 22.1L59.4 22.4L59.4 22.6L59.2 22.7L59.3 22.9L59.5 23L59.6 23.2L59.8 23.5L59.6 23.7L59.4 23.8L59.1 23.9L58.9 24L58.7 23.9Z" fill="hsl(36 18% 91%)" stroke="hsl(36 14% 83%)" stroke-width="0.12" stroke-linejoin="round"/>
</svg>